<svg width="24" height="18" viewBox="0 0 24 18" fill="none" xmlns="http://www.w3.org/2000/svg">
<path d="M22.4818 8.22265L17.1484 0.22265C17.0557 0.0835506 16.8996 0 16.7324 0H7.93426C7.53491 0 7.29672 0.445073 7.51823 0.77735L12.8516 8.77735C12.9443 8.91645 13.1004 9 13.2676 9H22.0657C22.4651 9 22.7033 8.55493 22.4818 8.22265Z" fill="black"/>
<path d="M19.1484 17.7774L23.4818 11.2774C23.7033 10.9451 23.4651 10.5 23.0657 10.5H12.2676C12.1004 10.5 11.9443 10.5835 11.8516 10.7226L7.51823 17.2227C7.29672 17.5549 7.53491 18 7.93426 18H18.7324C18.8996 18 19.0557 17.9165 19.1484 17.7774Z" fill="black"/>
<path d="M0.1849 10.7773L4.58397 17.376C4.78189 17.6728 5.21811 17.6728 5.41603 17.376L10.8151 9.27735C10.9271 9.1094 10.9271 8.8906 10.8151 8.72265L6.41603 2.12404C6.21811 1.82717 5.78189 1.82717 5.58397 2.12404L0.1849 10.2226C0.0729336 10.3906 0.0729334 10.6094 0.1849 10.7773Z" fill="black"/>
</svg>
