<svg width="8" height="8" viewBox="0 0 8 8" fill="none" xmlns="http://www.w3.org/2000/svg">
<path fill-rule="evenodd" clip-rule="evenodd" d="M5.96499 7.48526C6.00049 7.46529 6.0356 7.4448 6.07033 7.42382C6.40126 6.4995 6.46399 5.4685 6.19065 4.44838C5.61946 2.3167 3.75366 0.87762 1.66583 0.750419C1.46997 0.891148 1.28864 1.0485 1.12333 1.21986C0.949333 1.40024 0.793089 1.59614 0.656347 1.80454C0.656348 1.80454 0.656346 1.80454 0.656347 1.80454C0.507074 2.03205 0.381049 2.27445 0.280531 2.52781C0.280534 2.52781 0.280529 2.5278 0.280531 2.52781C0.163557 2.82264 0.0811293 3.13231 0.036854 3.4506C0.0368515 3.4506 0.0368565 3.4506 0.036854 3.4506C-0.0245915 3.89232 -0.012569 4.35064 0.0824915 4.80895C0.772587 5.50159 1.33427 6.33655 1.7165 7.28436C1.7165 7.28435 1.7165 7.28436 1.7165 7.28436C2.09026 7.54394 2.50708 7.73941 2.94856 7.86011C2.94856 7.86011 2.94856 7.8601 2.94856 7.86011C3.25398 7.94361 3.5712 7.99133 3.89412 7.99974C3.89412 7.99975 3.89412 7.99974 3.89412 7.99974C4.16219 8.00673 4.43418 7.98662 4.70661 7.93741C4.70661 7.93741 4.70661 7.93741 4.70661 7.93741C4.75627 7.28057 4.69777 6.60429 4.51761 5.93195C3.97978 3.92473 2.48541 2.42925 0.656347 1.80454C0.793089 1.59614 0.949333 1.40024 1.12333 1.21986C3.1072 1.61933 4.79485 3.10291 5.35413 5.19017C5.58497 6.05167 5.59792 6.92022 5.42675 7.73732M3.89412 7.99974C3.86953 7.55995 3.79962 7.11605 3.6811 6.67373C3.17725 4.79336 1.89853 3.32755 0.280531 2.52781C0.163557 2.82264 0.0811293 3.13231 0.036854 3.4506C1.36885 4.36138 2.3942 5.73465 2.84458 7.41551C2.88426 7.56361 2.91889 7.71187 2.94856 7.86011C3.25398 7.94361 3.5712 7.99133 3.89412 7.99974Z" fill="black"/>
<path fill-rule="evenodd" clip-rule="evenodd" d="M5.42675 7.73732C5.3157 7.77956 5.20184 7.81723 5.08534 7.85004ZM5.08534 7.85004C5.20184 7.81723 5.3157 7.77956 5.42675 7.73732C5.61443 7.66592 5.7941 7.58146 5.96499 7.48526" fill="black"/>
<path d="M2.27893 0.3885C4.41885 0.194251 6.45208 1.56038 7.02716 3.7066C7.33621 4.85998 7.16792 6.02881 6.64338 7.00334C7.74718 6.0303 8.27035 4.48252 7.86368 2.96482C7.29191 0.830956 5.09856 -0.435374 2.9647 0.136393C2.72467 0.200709 2.49562 0.285542 2.27893 0.3885Z" fill="black"/>
</svg>
