<svg width="932" height="345" viewBox="0 0 932 345" fill="none" xmlns="http://www.w3.org/2000/svg">
<rect x="24" y="130" width="204" height="86" rx="8" fill="#BFDBFE"/>
<path d="M72.7988 152H75.2207V162.523C75.2207 163.643 74.9577 164.635 74.4316 165.5C73.9056 166.359 73.166 167.036 72.2129 167.531C71.2598 168.021 70.1426 168.266 68.8613 168.266C67.5853 168.266 66.4707 168.021 65.5176 167.531C64.5645 167.036 63.8249 166.359 63.2988 165.5C62.7728 164.635 62.5098 163.643 62.5098 162.523V152H64.9238V162.328C64.9238 163.052 65.0827 163.695 65.4004 164.258C65.7233 164.82 66.179 165.263 66.7676 165.586C67.3561 165.904 68.054 166.062 68.8613 166.062C69.6738 166.062 70.3743 165.904 70.9629 165.586C71.5566 165.263 72.0098 164.82 72.3223 164.258C72.64 163.695 72.7988 163.052 72.7988 162.328V152ZM87.5352 158.93L85.418 159.305C85.3294 159.034 85.1888 158.776 84.9961 158.531C84.8086 158.286 84.5534 158.086 84.2305 157.93C83.9076 157.773 83.5039 157.695 83.0195 157.695C82.3581 157.695 81.806 157.844 81.3633 158.141C80.9206 158.432 80.6992 158.81 80.6992 159.273C80.6992 159.674 80.8477 159.997 81.1445 160.242C81.4414 160.487 81.9206 160.687 82.582 160.844L84.4883 161.281C85.5924 161.536 86.4154 161.93 86.957 162.461C87.4987 162.992 87.7695 163.682 87.7695 164.531C87.7695 165.25 87.5612 165.891 87.1445 166.453C86.7331 167.01 86.1576 167.448 85.418 167.766C84.6836 168.083 83.832 168.242 82.8633 168.242C81.5195 168.242 80.4232 167.956 79.5742 167.383C78.7253 166.805 78.2044 165.984 78.0117 164.922L80.2695 164.578C80.4102 165.167 80.6992 165.612 81.1367 165.914C81.5742 166.211 82.1445 166.359 82.8477 166.359C83.6133 166.359 84.2253 166.201 84.6836 165.883C85.1419 165.56 85.3711 165.167 85.3711 164.703C85.3711 164.328 85.2305 164.013 84.9492 163.758C84.6732 163.503 84.2487 163.31 83.6758 163.18L81.6445 162.734C80.5247 162.479 79.6966 162.073 79.1602 161.516C78.6289 160.958 78.3633 160.253 78.3633 159.398C78.3633 158.69 78.5612 158.07 78.957 157.539C79.3529 157.008 79.8997 156.594 80.5977 156.297C81.2956 155.995 82.0951 155.844 82.9961 155.844C84.293 155.844 85.3138 156.125 86.0586 156.687C86.8034 157.245 87.2956 157.992 87.5352 158.93ZM95.5098 168.242C94.3275 168.242 93.3092 167.99 92.4551 167.484C91.6061 166.974 90.9499 166.258 90.4863 165.336C90.028 164.409 89.7988 163.323 89.7988 162.078C89.7988 160.849 90.028 159.766 90.4863 158.828C90.9499 157.891 91.5957 157.159 92.4238 156.633C93.2572 156.107 94.2311 155.844 95.3457 155.844C96.0228 155.844 96.679 155.956 97.3145 156.18C97.9499 156.404 98.5202 156.755 99.0254 157.234C99.5306 157.714 99.929 158.336 100.221 159.102C100.512 159.862 100.658 160.786 100.658 161.875V162.703H91.1191V160.953H98.3691C98.3691 160.339 98.2441 159.794 97.9941 159.32C97.7441 158.841 97.3926 158.464 96.9395 158.187C96.4915 157.911 95.9655 157.773 95.3613 157.773C94.7051 157.773 94.1322 157.935 93.6426 158.258C93.1582 158.576 92.7832 158.992 92.5176 159.508C92.2572 160.018 92.127 160.573 92.127 161.172V162.539C92.127 163.341 92.2676 164.023 92.5488 164.586C92.8353 165.148 93.2337 165.578 93.7441 165.875C94.2546 166.167 94.8509 166.312 95.5332 166.312C95.9759 166.312 96.3796 166.25 96.7441 166.125C97.1087 165.995 97.4238 165.802 97.6895 165.547C97.9551 165.292 98.1582 164.977 98.2988 164.602L100.51 165C100.333 165.651 100.015 166.221 99.5566 166.711C99.1035 167.195 98.5332 167.573 97.8457 167.844C97.1634 168.109 96.3848 168.242 95.5098 168.242ZM103.25 168V156H105.508V157.906H105.633C105.852 157.26 106.237 156.753 106.789 156.383C107.346 156.008 107.977 155.82 108.68 155.82C108.826 155.82 108.997 155.826 109.195 155.836C109.398 155.846 109.557 155.859 109.672 155.875V158.109C109.578 158.083 109.411 158.055 109.172 158.023C108.932 157.987 108.693 157.969 108.453 157.969C107.901 157.969 107.409 158.086 106.977 158.32C106.549 158.549 106.211 158.87 105.961 159.281C105.711 159.687 105.586 160.151 105.586 160.672V168H103.25ZM118.195 161.359C118.195 159.401 118.453 157.599 118.969 155.953C119.484 154.307 120.237 152.789 121.227 151.398H123.367C122.982 151.914 122.622 152.547 122.289 153.297C121.956 154.047 121.664 154.87 121.414 155.766C121.164 156.656 120.969 157.581 120.828 158.539C120.688 159.492 120.617 160.432 120.617 161.359C120.617 162.599 120.74 163.854 120.984 165.125C121.229 166.396 121.56 167.576 121.977 168.664C122.393 169.753 122.857 170.641 123.367 171.328H121.227C120.237 169.938 119.484 168.419 118.969 166.773C118.453 165.128 118.195 163.323 118.195 161.359ZM126.018 168V152H136.049V154.078H128.432V158.953H135.525V161.023H128.432V165.922H136.143V168H126.018ZM153.172 160C153.172 161.708 152.859 163.177 152.234 164.406C151.609 165.63 150.753 166.573 149.664 167.234C148.581 167.891 147.349 168.219 145.969 168.219C144.583 168.219 143.346 167.891 142.258 167.234C141.174 166.573 140.32 165.628 139.695 164.398C139.07 163.169 138.758 161.703 138.758 160C138.758 158.292 139.07 156.826 139.695 155.602C140.32 154.372 141.174 153.43 142.258 152.773C143.346 152.112 144.583 151.781 145.969 151.781C147.349 151.781 148.581 152.112 149.664 152.773C150.753 153.43 151.609 154.372 152.234 155.602C152.859 156.826 153.172 158.292 153.172 160ZM150.781 160C150.781 158.698 150.57 157.602 150.148 156.711C149.732 155.815 149.159 155.138 148.43 154.68C147.706 154.216 146.885 153.984 145.969 153.984C145.047 153.984 144.224 154.216 143.5 154.68C142.776 155.138 142.203 155.815 141.781 156.711C141.365 157.602 141.156 158.698 141.156 160C141.156 161.302 141.365 162.401 141.781 163.297C142.203 164.187 142.776 164.865 143.5 165.328C144.224 165.786 145.047 166.016 145.969 166.016C146.885 166.016 147.706 165.786 148.43 165.328C149.159 164.865 149.732 164.187 150.148 163.297C150.57 162.401 150.781 161.302 150.781 160ZM156.738 168H154.176L159.934 152H162.723L168.48 168H165.918L161.395 154.906H161.27L156.738 168ZM157.168 161.734H165.48V163.766H157.168V161.734ZM175.096 161.359C175.096 163.323 174.838 165.128 174.322 166.773C173.807 168.419 173.054 169.938 172.064 171.328H169.924C170.309 170.813 170.669 170.18 171.002 169.43C171.335 168.68 171.627 167.859 171.877 166.969C172.127 166.073 172.322 165.146 172.463 164.188C172.604 163.229 172.674 162.286 172.674 161.359C172.674 160.125 172.551 158.872 172.307 157.602C172.062 156.331 171.731 155.151 171.314 154.062C170.898 152.974 170.434 152.086 169.924 151.398H172.064C173.054 152.789 173.807 154.307 174.322 155.953C174.838 157.599 175.096 159.401 175.096 161.359ZM190.834 151.25L185.678 170.406H183.592L188.748 151.25H190.834ZM55.6924 183.203C55.609 182.464 55.2653 181.891 54.6611 181.484C54.057 181.073 53.2966 180.867 52.3799 180.867C51.7236 180.867 51.1559 180.971 50.6768 181.18C50.1976 181.383 49.8252 181.664 49.5596 182.023C49.2992 182.378 49.1689 182.781 49.1689 183.234C49.1689 183.615 49.2575 183.943 49.4346 184.219C49.6169 184.495 49.8538 184.727 50.1455 184.914C50.4424 185.096 50.7601 185.25 51.0986 185.375C51.4372 185.495 51.7627 185.594 52.0752 185.672L53.6377 186.078C54.1481 186.203 54.6715 186.372 55.208 186.586C55.7445 186.799 56.2419 187.081 56.7002 187.43C57.1585 187.779 57.5283 188.211 57.8096 188.727C58.096 189.242 58.2393 189.859 58.2393 190.578C58.2393 191.484 58.0049 192.289 57.5361 192.992C57.0726 193.695 56.3981 194.25 55.5127 194.656C54.6325 195.063 53.5674 195.266 52.3174 195.266C51.1195 195.266 50.083 195.076 49.208 194.695C48.333 194.315 47.6481 193.776 47.1533 193.078C46.6585 192.375 46.3851 191.542 46.333 190.578H48.7549C48.8018 191.156 48.9893 191.638 49.3174 192.023C49.6507 192.404 50.0752 192.687 50.5908 192.875C51.1117 193.057 51.682 193.148 52.3018 193.148C52.984 193.148 53.5908 193.042 54.1221 192.828C54.6585 192.609 55.0804 192.307 55.3877 191.922C55.695 191.531 55.8486 191.076 55.8486 190.555C55.8486 190.081 55.7132 189.693 55.4424 189.391C55.1768 189.089 54.8148 188.839 54.3564 188.641C53.9033 188.443 53.3903 188.268 52.8174 188.117L50.9268 187.602C49.6455 187.253 48.6299 186.74 47.8799 186.062C47.1351 185.385 46.7627 184.49 46.7627 183.375C46.7627 182.453 47.0127 181.648 47.5127 180.961C48.0127 180.273 48.6898 179.74 49.5439 179.359C50.3981 178.974 51.3617 178.781 52.4346 178.781C53.5179 178.781 54.4736 178.971 55.3018 179.352C56.1351 179.732 56.7913 180.255 57.2705 180.922C57.7497 181.583 57.9997 182.344 58.0205 183.203H55.6924ZM60.9365 195V183H63.1787V184.953H63.3271C63.5771 184.292 63.986 183.776 64.5537 183.406C65.1214 183.031 65.8011 182.844 66.5928 182.844C67.3949 182.844 68.0667 183.031 68.6084 183.406C69.1553 183.781 69.5589 184.297 69.8193 184.953H69.9443C70.2308 184.312 70.6865 183.802 71.3115 183.422C71.9365 183.036 72.6813 182.844 73.5459 182.844C74.6344 182.844 75.5225 183.185 76.21 183.867C76.9027 184.549 77.249 185.578 77.249 186.953V195H74.9131V187.172C74.9131 186.359 74.6917 185.771 74.249 185.406C73.8063 185.042 73.2777 184.859 72.6631 184.859C71.9027 184.859 71.3115 185.094 70.8896 185.562C70.4678 186.026 70.2568 186.622 70.2568 187.352V195H67.9287V187.023C67.9287 186.372 67.7256 185.849 67.3193 185.453C66.9131 185.057 66.3844 184.859 65.7334 184.859C65.2907 184.859 64.8818 184.977 64.5068 185.211C64.137 185.44 63.8376 185.76 63.6084 186.172C63.3844 186.583 63.2725 187.06 63.2725 187.602V195H60.9365ZM83.8721 195.266C83.1117 195.266 82.4242 195.125 81.8096 194.844C81.195 194.557 80.708 194.143 80.3486 193.602C79.9945 193.06 79.8174 192.396 79.8174 191.609C79.8174 190.932 79.9476 190.375 80.208 189.937C80.4684 189.5 80.82 189.154 81.2627 188.898C81.7054 188.643 82.2002 188.451 82.7471 188.32C83.2939 188.19 83.8512 188.091 84.4189 188.023C85.1377 187.94 85.721 187.872 86.1689 187.82C86.6169 187.763 86.9424 187.672 87.1455 187.547C87.3486 187.422 87.4502 187.219 87.4502 186.937V186.883C87.4502 186.201 87.2575 185.672 86.8721 185.297C86.4919 184.922 85.9242 184.734 85.1689 184.734C84.3825 184.734 83.7627 184.909 83.3096 185.258C82.8617 185.602 82.5518 185.984 82.3799 186.406L80.1846 185.906C80.445 185.177 80.8252 184.589 81.3252 184.141C81.8304 183.687 82.4111 183.359 83.0674 183.156C83.7236 182.948 84.4137 182.844 85.1377 182.844C85.6169 182.844 86.1247 182.901 86.6611 183.016C87.2028 183.125 87.708 183.328 88.1768 183.625C88.6507 183.922 89.0387 184.346 89.3408 184.898C89.6429 185.445 89.7939 186.156 89.7939 187.031V195H87.5127V193.359H87.4189C87.2679 193.661 87.0413 193.958 86.7393 194.25C86.4372 194.542 86.0492 194.784 85.5752 194.977C85.1012 195.169 84.5335 195.266 83.8721 195.266ZM84.3799 193.391C85.0257 193.391 85.5778 193.263 86.0361 193.008C86.4997 192.753 86.8512 192.419 87.0908 192.008C87.3356 191.591 87.458 191.146 87.458 190.672V189.125C87.3747 189.208 87.2132 189.286 86.9736 189.359C86.7393 189.427 86.471 189.487 86.1689 189.539C85.8669 189.586 85.5726 189.63 85.2861 189.672C84.9997 189.708 84.7601 189.74 84.5674 189.766C84.1143 189.823 83.7002 189.919 83.3252 190.055C82.9554 190.19 82.6585 190.385 82.4346 190.641C82.2158 190.891 82.1064 191.224 82.1064 191.641C82.1064 192.219 82.32 192.656 82.7471 192.953C83.1742 193.245 83.7184 193.391 84.3799 193.391ZM92.9053 195V183H95.1631V184.906H95.2881C95.5068 184.26 95.8923 183.753 96.4443 183.383C97.0016 183.008 97.6318 182.82 98.335 182.82C98.4808 182.82 98.6527 182.826 98.8506 182.836C99.0537 182.846 99.2126 182.859 99.3271 182.875V185.109C99.2334 185.083 99.0667 185.055 98.8271 185.023C98.5876 184.987 98.348 184.969 98.1084 184.969C97.5563 184.969 97.0641 185.086 96.6318 185.32C96.2048 185.549 95.8662 185.87 95.6162 186.281C95.3662 186.687 95.2412 187.151 95.2412 187.672V195H92.9053ZM107.659 183V184.875H101.104V183H107.659ZM102.862 180.125H105.198V191.477C105.198 191.93 105.266 192.271 105.401 192.5C105.537 192.724 105.711 192.878 105.925 192.961C106.144 193.039 106.381 193.078 106.636 193.078C106.823 193.078 106.987 193.065 107.128 193.039C107.269 193.013 107.378 192.992 107.456 192.977L107.878 194.906C107.743 194.958 107.55 195.01 107.3 195.063C107.05 195.12 106.737 195.151 106.362 195.156C105.748 195.167 105.175 195.057 104.644 194.828C104.112 194.599 103.683 194.245 103.354 193.766C103.026 193.286 102.862 192.685 102.862 191.961V180.125ZM129.542 184.203H127.104C127.011 183.682 126.836 183.224 126.581 182.828C126.326 182.432 126.013 182.096 125.644 181.82C125.274 181.544 124.86 181.336 124.401 181.195C123.948 181.055 123.466 180.984 122.956 180.984C122.034 180.984 121.209 181.216 120.479 181.68C119.756 182.143 119.183 182.823 118.761 183.719C118.344 184.615 118.136 185.708 118.136 187C118.136 188.302 118.344 189.401 118.761 190.297C119.183 191.193 119.758 191.87 120.487 192.328C121.216 192.786 122.037 193.016 122.948 193.016C123.453 193.016 123.933 192.948 124.386 192.812C124.844 192.672 125.258 192.466 125.628 192.195C125.998 191.924 126.31 191.594 126.565 191.203C126.826 190.807 127.006 190.354 127.104 189.844L129.542 189.852C129.412 190.638 129.159 191.362 128.784 192.023C128.414 192.68 127.938 193.247 127.354 193.727C126.776 194.201 126.115 194.568 125.37 194.828C124.625 195.089 123.813 195.219 122.933 195.219C121.547 195.219 120.313 194.891 119.229 194.234C118.146 193.573 117.292 192.628 116.667 191.398C116.047 190.169 115.737 188.703 115.737 187C115.737 185.292 116.05 183.826 116.675 182.602C117.3 181.372 118.154 180.43 119.237 179.773C120.321 179.112 121.552 178.781 122.933 178.781C123.782 178.781 124.573 178.904 125.308 179.148C126.047 179.388 126.711 179.742 127.3 180.211C127.888 180.674 128.375 181.242 128.761 181.914C129.146 182.581 129.407 183.344 129.542 184.203ZM137.298 195.242C136.173 195.242 135.191 194.984 134.353 194.469C133.514 193.953 132.863 193.232 132.399 192.305C131.936 191.378 131.704 190.294 131.704 189.055C131.704 187.81 131.936 186.721 132.399 185.789C132.863 184.857 133.514 184.133 134.353 183.617C135.191 183.102 136.173 182.844 137.298 182.844C138.423 182.844 139.405 183.102 140.243 183.617C141.082 184.133 141.733 184.857 142.196 185.789C142.66 186.721 142.892 187.81 142.892 189.055C142.892 190.294 142.66 191.378 142.196 192.305C141.733 193.232 141.082 193.953 140.243 194.469C139.405 194.984 138.423 195.242 137.298 195.242ZM137.306 193.281C138.035 193.281 138.639 193.089 139.118 192.703C139.597 192.318 139.951 191.805 140.181 191.164C140.415 190.523 140.532 189.818 140.532 189.047C140.532 188.281 140.415 187.578 140.181 186.937C139.951 186.292 139.597 185.773 139.118 185.383C138.639 184.992 138.035 184.797 137.306 184.797C136.571 184.797 135.962 184.992 135.478 185.383C134.998 185.773 134.642 186.292 134.407 186.937C134.178 187.578 134.063 188.281 134.063 189.047C134.063 189.818 134.178 190.523 134.407 191.164C134.642 191.805 134.998 192.318 135.478 192.703C135.962 193.089 136.571 193.281 137.306 193.281ZM147.835 187.875V195H145.499V183H147.741V184.953H147.89C148.166 184.318 148.598 183.807 149.187 183.422C149.78 183.036 150.528 182.844 151.429 182.844C152.246 182.844 152.963 183.016 153.577 183.359C154.192 183.698 154.668 184.203 155.007 184.875C155.345 185.547 155.515 186.378 155.515 187.367V195H153.179V187.648C153.179 186.779 152.952 186.099 152.499 185.609C152.046 185.115 151.424 184.867 150.632 184.867C150.09 184.867 149.608 184.984 149.187 185.219C148.77 185.453 148.439 185.797 148.194 186.25C147.955 186.698 147.835 187.24 147.835 187.875ZM164.249 183V184.875H157.694V183H164.249ZM159.452 180.125H161.788V191.477C161.788 191.93 161.856 192.271 161.991 192.5C162.127 192.724 162.301 192.878 162.515 192.961C162.733 193.039 162.97 193.078 163.226 193.078C163.413 193.078 163.577 193.065 163.718 193.039C163.858 193.013 163.968 192.992 164.046 192.977L164.468 194.906C164.332 194.958 164.14 195.01 163.89 195.063C163.64 195.12 163.327 195.151 162.952 195.156C162.338 195.167 161.765 195.057 161.233 194.828C160.702 194.599 160.272 194.245 159.944 193.766C159.616 193.286 159.452 192.685 159.452 191.961V180.125ZM166.833 195V183H169.091V184.906H169.216C169.435 184.26 169.82 183.753 170.372 183.383C170.929 183.008 171.56 182.82 172.263 182.82C172.409 182.82 172.58 182.826 172.778 182.836C172.981 182.846 173.14 182.859 173.255 182.875V185.109C173.161 185.083 172.994 185.055 172.755 185.023C172.515 184.987 172.276 184.969 172.036 184.969C171.484 184.969 170.992 185.086 170.56 185.32C170.132 185.549 169.794 185.87 169.544 186.281C169.294 186.687 169.169 187.151 169.169 187.672V195H166.833ZM178.661 195.266C177.901 195.266 177.213 195.125 176.599 194.844C175.984 194.557 175.497 194.143 175.138 193.602C174.784 193.06 174.606 192.396 174.606 191.609C174.606 190.932 174.737 190.375 174.997 189.937C175.257 189.5 175.609 189.154 176.052 188.898C176.494 188.643 176.989 188.451 177.536 188.32C178.083 188.19 178.64 188.091 179.208 188.023C179.927 187.94 180.51 187.872 180.958 187.82C181.406 187.763 181.731 187.672 181.935 187.547C182.138 187.422 182.239 187.219 182.239 186.937V186.883C182.239 186.201 182.047 185.672 181.661 185.297C181.281 184.922 180.713 184.734 179.958 184.734C179.172 184.734 178.552 184.909 178.099 185.258C177.651 185.602 177.341 185.984 177.169 186.406L174.974 185.906C175.234 185.177 175.614 184.589 176.114 184.141C176.619 183.687 177.2 183.359 177.856 183.156C178.513 182.948 179.203 182.844 179.927 182.844C180.406 182.844 180.914 182.901 181.45 183.016C181.992 183.125 182.497 183.328 182.966 183.625C183.44 183.922 183.828 184.346 184.13 184.898C184.432 185.445 184.583 186.156 184.583 187.031V195H182.302V193.359H182.208C182.057 193.661 181.83 193.958 181.528 194.25C181.226 194.542 180.838 194.784 180.364 194.977C179.89 195.169 179.323 195.266 178.661 195.266ZM179.169 193.391C179.815 193.391 180.367 193.263 180.825 193.008C181.289 192.753 181.64 192.419 181.88 192.008C182.125 191.591 182.247 191.146 182.247 190.672V189.125C182.164 189.208 182.002 189.286 181.763 189.359C181.528 189.427 181.26 189.487 180.958 189.539C180.656 189.586 180.362 189.63 180.075 189.672C179.789 189.708 179.549 189.74 179.356 189.766C178.903 189.823 178.489 189.919 178.114 190.055C177.744 190.19 177.448 190.385 177.224 190.641C177.005 190.891 176.896 191.224 176.896 191.641C176.896 192.219 177.109 192.656 177.536 192.953C177.963 193.245 178.507 193.391 179.169 193.391ZM192.749 195.242C191.588 195.242 190.588 194.979 189.749 194.453C188.916 193.922 188.275 193.19 187.827 192.258C187.379 191.326 187.155 190.258 187.155 189.055C187.155 187.836 187.384 186.76 187.843 185.828C188.301 184.891 188.947 184.159 189.78 183.633C190.614 183.107 191.595 182.844 192.726 182.844C193.637 182.844 194.45 183.013 195.163 183.352C195.877 183.685 196.452 184.154 196.89 184.758C197.332 185.362 197.595 186.068 197.679 186.875H195.405C195.28 186.312 194.994 185.828 194.546 185.422C194.103 185.016 193.509 184.812 192.765 184.812C192.114 184.812 191.543 184.984 191.054 185.328C190.569 185.667 190.192 186.151 189.921 186.781C189.65 187.406 189.515 188.146 189.515 189C189.515 189.875 189.647 190.63 189.913 191.266C190.179 191.901 190.554 192.393 191.038 192.742C191.528 193.091 192.103 193.266 192.765 193.266C193.207 193.266 193.608 193.185 193.968 193.023C194.332 192.857 194.637 192.62 194.882 192.312C195.132 192.005 195.306 191.635 195.405 191.203H197.679C197.595 191.979 197.343 192.672 196.921 193.281C196.499 193.891 195.934 194.37 195.226 194.719C194.522 195.068 193.697 195.242 192.749 195.242ZM205.778 183V184.875H199.224V183H205.778ZM200.981 180.125H203.317V191.477C203.317 191.93 203.385 192.271 203.521 192.5C203.656 192.724 203.83 192.878 204.044 192.961C204.263 193.039 204.5 193.078 204.755 193.078C204.942 193.078 205.106 193.065 205.247 193.039C205.388 193.013 205.497 192.992 205.575 192.977L205.997 194.906C205.862 194.958 205.669 195.01 205.419 195.063C205.169 195.12 204.856 195.151 204.481 195.156C203.867 195.167 203.294 195.057 202.763 194.828C202.231 194.599 201.802 194.245 201.474 193.766C201.146 193.286 200.981 192.685 200.981 191.961V180.125Z" fill="#2563EB"/>
<rect x="704.021" y="24" width="204" height="59" rx="8" fill="#BFDBFE"/>
<path d="M786.894 54C786.894 55.7083 786.582 57.1771 785.957 58.4062C785.332 59.6302 784.475 60.5729 783.386 61.2344C782.303 61.8906 781.071 62.2187 779.691 62.2187C778.306 62.2187 777.069 61.8906 775.98 61.2344C774.897 60.5729 774.043 59.6276 773.418 58.3984C772.793 57.1693 772.48 55.7031 772.48 54C772.48 52.2917 772.793 50.8255 773.418 49.6016C774.043 48.3724 774.897 47.4297 775.98 46.7734C777.069 46.112 778.306 45.7812 779.691 45.7812C781.071 45.7812 782.303 46.112 783.386 46.7734C784.475 47.4297 785.332 48.3724 785.957 49.6016C786.582 50.8255 786.894 52.2917 786.894 54ZM784.504 54C784.504 52.6979 784.293 51.6016 783.871 50.7109C783.454 49.8151 782.881 49.138 782.152 48.6797C781.428 48.2161 780.608 47.9844 779.691 47.9844C778.769 47.9844 777.946 48.2161 777.222 48.6797C776.498 49.138 775.926 49.8151 775.504 50.7109C775.087 51.6016 774.879 52.6979 774.879 54C774.879 55.3021 775.087 56.401 775.504 57.2969C775.926 58.1875 776.498 58.8646 777.222 59.3281C777.946 59.7865 778.769 60.0156 779.691 60.0156C780.608 60.0156 781.428 59.7865 782.152 59.3281C782.881 58.8646 783.454 58.1875 783.871 57.2969C784.293 56.401 784.504 55.3021 784.504 54ZM792.318 62L788.787 50H791.201L793.552 58.8125H793.67L796.029 50H798.443L800.787 58.7734H800.904L803.24 50H805.654L802.131 62H799.748L797.31 53.3359H797.131L794.693 62H792.318ZM810.207 54.875V62H807.871V50H810.113V51.9531H810.261C810.538 51.3177 810.97 50.8073 811.558 50.4219C812.152 50.0365 812.899 49.8438 813.801 49.8438C814.618 49.8438 815.334 50.0156 815.949 50.3594C816.564 50.6979 817.04 51.2031 817.379 51.875C817.717 52.5469 817.886 53.3776 817.886 54.3672V62H815.551V54.6484C815.551 53.7786 815.324 53.099 814.871 52.6094C814.418 52.1146 813.795 51.8672 813.004 51.8672C812.462 51.8672 811.98 51.9844 811.558 52.2187C811.142 52.4531 810.811 52.7969 810.566 53.25C810.327 53.6979 810.207 54.2396 810.207 54.875ZM826.191 62.2422C825.009 62.2422 823.991 61.9896 823.136 61.4844C822.288 60.974 821.631 60.2578 821.168 59.3359C820.709 58.4089 820.48 57.3229 820.48 56.0781C820.48 54.849 820.709 53.7656 821.168 52.8281C821.631 51.8906 822.277 51.1589 823.105 50.6328C823.939 50.1068 824.913 49.8438 826.027 49.8438C826.704 49.8438 827.36 49.9557 827.996 50.1797C828.631 50.4036 829.202 50.7552 829.707 51.2344C830.212 51.7135 830.61 52.3359 830.902 53.1016C831.194 53.862 831.34 54.7865 831.34 55.875V56.7031H821.801V54.9531H829.051C829.051 54.3385 828.926 53.7943 828.676 53.3203C828.426 52.8411 828.074 52.4635 827.621 52.1875C827.173 51.9115 826.647 51.7734 826.043 51.7734C825.386 51.7734 824.814 51.9349 824.324 52.2578C823.84 52.5755 823.465 52.9922 823.199 53.5078C822.939 54.0182 822.808 54.5729 822.808 55.1719V56.5391C822.808 57.3411 822.949 58.0234 823.23 58.5859C823.517 59.1484 823.915 59.5781 824.426 59.875C824.936 60.1667 825.532 60.3125 826.215 60.3125C826.657 60.3125 827.061 60.25 827.426 60.125C827.79 59.9948 828.105 59.8021 828.371 59.5469C828.636 59.2917 828.84 58.9766 828.98 58.6016L831.191 59C831.014 59.651 830.696 60.2214 830.238 60.7109C829.785 61.1953 829.215 61.5729 828.527 61.8437C827.845 62.1094 827.066 62.2422 826.191 62.2422ZM833.931 62V50H836.189V51.9062H836.314C836.533 51.2604 836.918 50.7526 837.47 50.3828C838.028 50.0078 838.658 49.8203 839.361 49.8203C839.507 49.8203 839.679 49.8255 839.877 49.8359C840.08 49.8464 840.239 49.8594 840.353 49.875V52.1094C840.26 52.0833 840.093 52.0547 839.853 52.0234C839.614 51.987 839.374 51.9687 839.135 51.9687C838.582 51.9687 838.09 52.0859 837.658 52.3203C837.231 52.5495 836.892 52.8698 836.642 53.2812C836.392 53.6875 836.267 54.151 836.267 54.6719V62H833.931Z" fill="#2563EB"/>
<rect x="704.021" y="143" width="204" height="59" rx="8" fill="#BFDBFE"/>
<path d="M786.894 173C786.894 174.708 786.582 176.177 785.957 177.406C785.332 178.63 784.475 179.573 783.386 180.234C782.303 180.891 781.071 181.219 779.691 181.219C778.306 181.219 777.069 180.891 775.98 180.234C774.897 179.573 774.043 178.628 773.418 177.398C772.793 176.169 772.48 174.703 772.48 173C772.48 171.292 772.793 169.826 773.418 168.602C774.043 167.372 774.897 166.43 775.98 165.773C777.069 165.112 778.306 164.781 779.691 164.781C781.071 164.781 782.303 165.112 783.386 165.773C784.475 166.43 785.332 167.372 785.957 168.602C786.582 169.826 786.894 171.292 786.894 173ZM784.504 173C784.504 171.698 784.293 170.602 783.871 169.711C783.454 168.815 782.881 168.138 782.152 167.68C781.428 167.216 780.608 166.984 779.691 166.984C778.769 166.984 777.946 167.216 777.222 167.68C776.498 168.138 775.926 168.815 775.504 169.711C775.087 170.602 774.879 171.698 774.879 173C774.879 174.302 775.087 175.401 775.504 176.297C775.926 177.187 776.498 177.865 777.222 178.328C777.946 178.786 778.769 179.016 779.691 179.016C780.608 179.016 781.428 178.786 782.152 178.328C782.881 177.865 783.454 177.187 783.871 176.297C784.293 175.401 784.504 174.302 784.504 173ZM792.318 181L788.787 169H791.201L793.552 177.812H793.67L796.029 169H798.443L800.787 177.773H800.904L803.24 169H805.654L802.131 181H799.748L797.31 172.336H797.131L794.693 181H792.318ZM810.207 173.875V181H807.871V169H810.113V170.953H810.261C810.538 170.318 810.97 169.807 811.558 169.422C812.152 169.036 812.899 168.844 813.801 168.844C814.618 168.844 815.334 169.016 815.949 169.359C816.564 169.698 817.04 170.203 817.379 170.875C817.717 171.547 817.886 172.378 817.886 173.367V181H815.551V173.648C815.551 172.779 815.324 172.099 814.871 171.609C814.418 171.115 813.795 170.867 813.004 170.867C812.462 170.867 811.98 170.984 811.558 171.219C811.142 171.453 810.811 171.797 810.566 172.25C810.327 172.698 810.207 173.24 810.207 173.875ZM826.191 181.242C825.009 181.242 823.991 180.99 823.136 180.484C822.288 179.974 821.631 179.258 821.168 178.336C820.709 177.409 820.48 176.323 820.48 175.078C820.48 173.849 820.709 172.766 821.168 171.828C821.631 170.891 822.277 170.159 823.105 169.633C823.939 169.107 824.913 168.844 826.027 168.844C826.704 168.844 827.36 168.956 827.996 169.18C828.631 169.404 829.202 169.755 829.707 170.234C830.212 170.714 830.61 171.336 830.902 172.102C831.194 172.862 831.34 173.786 831.34 174.875V175.703H821.801V173.953H829.051C829.051 173.339 828.926 172.794 828.676 172.32C828.426 171.841 828.074 171.464 827.621 171.187C827.173 170.911 826.647 170.773 826.043 170.773C825.386 170.773 824.814 170.935 824.324 171.258C823.84 171.576 823.465 171.992 823.199 172.508C822.939 173.018 822.808 173.573 822.808 174.172V175.539C822.808 176.341 822.949 177.023 823.23 177.586C823.517 178.148 823.915 178.578 824.426 178.875C824.936 179.167 825.532 179.312 826.215 179.312C826.657 179.312 827.061 179.25 827.426 179.125C827.79 178.995 828.105 178.802 828.371 178.547C828.636 178.292 828.84 177.977 828.98 177.602L831.191 178C831.014 178.651 830.696 179.221 830.238 179.711C829.785 180.195 829.215 180.573 828.527 180.844C827.845 181.109 827.066 181.242 826.191 181.242ZM833.931 181V169H836.189V170.906H836.314C836.533 170.26 836.918 169.753 837.47 169.383C838.028 169.008 838.658 168.82 839.361 168.82C839.507 168.82 839.679 168.826 839.877 168.836C840.08 168.846 840.239 168.859 840.353 168.875V171.109C840.26 171.083 840.093 171.055 839.853 171.023C839.614 170.987 839.374 170.969 839.135 170.969C838.582 170.969 838.09 171.086 837.658 171.32C837.231 171.549 836.892 171.87 836.642 172.281C836.392 172.687 836.267 173.151 836.267 173.672V181H833.931Z" fill="#2563EB"/>
<rect x="704.021" y="262" width="204" height="59" rx="8" fill="#BFDBFE"/>
<path d="M786.894 292C786.894 293.708 786.582 295.177 785.957 296.406C785.332 297.63 784.475 298.573 783.386 299.234C782.303 299.891 781.071 300.219 779.691 300.219C778.306 300.219 777.069 299.891 775.98 299.234C774.897 298.573 774.043 297.628 773.418 296.398C772.793 295.169 772.48 293.703 772.48 292C772.48 290.292 772.793 288.826 773.418 287.602C774.043 286.372 774.897 285.43 775.98 284.773C777.069 284.112 778.306 283.781 779.691 283.781C781.071 283.781 782.303 284.112 783.386 284.773C784.475 285.43 785.332 286.372 785.957 287.602C786.582 288.826 786.894 290.292 786.894 292ZM784.504 292C784.504 290.698 784.293 289.602 783.871 288.711C783.454 287.815 782.881 287.138 782.152 286.68C781.428 286.216 780.608 285.984 779.691 285.984C778.769 285.984 777.946 286.216 777.222 286.68C776.498 287.138 775.926 287.815 775.504 288.711C775.087 289.602 774.879 290.698 774.879 292C774.879 293.302 775.087 294.401 775.504 295.297C775.926 296.187 776.498 296.865 777.222 297.328C777.946 297.786 778.769 298.016 779.691 298.016C780.608 298.016 781.428 297.786 782.152 297.328C782.881 296.865 783.454 296.187 783.871 295.297C784.293 294.401 784.504 293.302 784.504 292ZM792.318 300L788.787 288H791.201L793.552 296.812H793.67L796.029 288H798.443L800.787 296.773H800.904L803.24 288H805.654L802.131 300H799.748L797.31 291.336H797.131L794.693 300H792.318ZM810.207 292.875V300H807.871V288H810.113V289.953H810.261C810.538 289.318 810.97 288.807 811.558 288.422C812.152 288.036 812.899 287.844 813.801 287.844C814.618 287.844 815.334 288.016 815.949 288.359C816.564 288.698 817.04 289.203 817.379 289.875C817.717 290.547 817.886 291.378 817.886 292.367V300H815.551V292.648C815.551 291.779 815.324 291.099 814.871 290.609C814.418 290.115 813.795 289.867 813.004 289.867C812.462 289.867 811.98 289.984 811.558 290.219C811.142 290.453 810.811 290.797 810.566 291.25C810.327 291.698 810.207 292.24 810.207 292.875ZM826.191 300.242C825.009 300.242 823.991 299.99 823.136 299.484C822.288 298.974 821.631 298.258 821.168 297.336C820.709 296.409 820.48 295.323 820.48 294.078C820.48 292.849 820.709 291.766 821.168 290.828C821.631 289.891 822.277 289.159 823.105 288.633C823.939 288.107 824.913 287.844 826.027 287.844C826.704 287.844 827.36 287.956 827.996 288.18C828.631 288.404 829.202 288.755 829.707 289.234C830.212 289.714 830.61 290.336 830.902 291.102C831.194 291.862 831.34 292.786 831.34 293.875V294.703H821.801V292.953H829.051C829.051 292.339 828.926 291.794 828.676 291.32C828.426 290.841 828.074 290.464 827.621 290.187C827.173 289.911 826.647 289.773 826.043 289.773C825.386 289.773 824.814 289.935 824.324 290.258C823.84 290.576 823.465 290.992 823.199 291.508C822.939 292.018 822.808 292.573 822.808 293.172V294.539C822.808 295.341 822.949 296.023 823.23 296.586C823.517 297.148 823.915 297.578 824.426 297.875C824.936 298.167 825.532 298.312 826.215 298.312C826.657 298.312 827.061 298.25 827.426 298.125C827.79 297.995 828.105 297.802 828.371 297.547C828.636 297.292 828.84 296.977 828.98 296.602L831.191 297C831.014 297.651 830.696 298.221 830.238 298.711C829.785 299.195 829.215 299.573 828.527 299.844C827.845 300.109 827.066 300.242 826.191 300.242ZM833.931 300V288H836.189V289.906H836.314C836.533 289.26 836.918 288.753 837.47 288.383C838.028 288.008 838.658 287.82 839.361 287.82C839.507 287.82 839.679 287.826 839.877 287.836C840.08 287.846 840.239 287.859 840.353 287.875V290.109C840.26 290.083 840.093 290.055 839.853 290.023C839.614 289.987 839.374 289.969 839.135 289.969C838.582 289.969 838.09 290.086 837.658 290.32C837.231 290.549 836.892 290.87 836.642 291.281C836.392 291.687 836.267 292.151 836.267 292.672V300H833.931Z" fill="#2563EB"/>
<rect x="364" y="143" width="204" height="59" rx="8" fill="#BBF7D0"/>
<path d="M453.045 169.203C452.962 168.464 452.618 167.891 452.014 167.484C451.41 167.073 450.649 166.867 449.732 166.867C449.076 166.867 448.508 166.971 448.029 167.18C447.55 167.383 447.178 167.664 446.912 168.023C446.652 168.378 446.521 168.781 446.521 169.234C446.521 169.615 446.61 169.943 446.787 170.219C446.969 170.495 447.206 170.727 447.498 170.914C447.795 171.096 448.113 171.25 448.451 171.375C448.79 171.495 449.115 171.594 449.428 171.672L450.99 172.078C451.501 172.203 452.024 172.372 452.561 172.586C453.097 172.799 453.594 173.081 454.053 173.43C454.511 173.779 454.881 174.211 455.162 174.727C455.449 175.242 455.592 175.859 455.592 176.578C455.592 177.484 455.357 178.289 454.889 178.992C454.425 179.695 453.751 180.25 452.865 180.656C451.985 181.063 450.92 181.266 449.67 181.266C448.472 181.266 447.436 181.076 446.561 180.695C445.686 180.315 445.001 179.776 444.506 179.078C444.011 178.375 443.738 177.542 443.686 176.578H446.107C446.154 177.156 446.342 177.638 446.67 178.023C447.003 178.404 447.428 178.687 447.943 178.875C448.464 179.057 449.035 179.148 449.654 179.148C450.337 179.148 450.943 179.042 451.475 178.828C452.011 178.609 452.433 178.307 452.74 177.922C453.048 177.531 453.201 177.076 453.201 176.555C453.201 176.081 453.066 175.693 452.795 175.391C452.529 175.089 452.167 174.839 451.709 174.641C451.256 174.443 450.743 174.268 450.17 174.117L448.279 173.602C446.998 173.253 445.982 172.74 445.232 172.062C444.488 171.385 444.115 170.49 444.115 169.375C444.115 168.453 444.365 167.648 444.865 166.961C445.365 166.273 446.042 165.74 446.896 165.359C447.751 164.974 448.714 164.781 449.787 164.781C450.87 164.781 451.826 164.971 452.654 165.352C453.488 165.732 454.144 166.255 454.623 166.922C455.102 167.583 455.352 168.344 455.373 169.203H453.045ZM458.289 185.5V169H460.57V170.945H460.766C460.901 170.695 461.096 170.406 461.352 170.078C461.607 169.75 461.961 169.464 462.414 169.219C462.867 168.969 463.466 168.844 464.211 168.844C465.18 168.844 466.044 169.089 466.805 169.578C467.565 170.068 468.161 170.773 468.594 171.695C469.031 172.617 469.25 173.727 469.25 175.023C469.25 176.32 469.034 177.432 468.602 178.359C468.169 179.281 467.576 179.992 466.82 180.492C466.065 180.987 465.203 181.234 464.234 181.234C463.505 181.234 462.909 181.112 462.445 180.867C461.987 180.622 461.628 180.336 461.367 180.008C461.107 179.68 460.906 179.388 460.766 179.133H460.625V185.5H458.289ZM460.578 175C460.578 175.844 460.701 176.583 460.945 177.219C461.19 177.854 461.544 178.352 462.008 178.711C462.471 179.065 463.039 179.242 463.711 179.242C464.409 179.242 464.992 179.057 465.461 178.687C465.93 178.312 466.284 177.805 466.523 177.164C466.768 176.523 466.891 175.802 466.891 175C466.891 174.208 466.771 173.497 466.531 172.867C466.297 172.237 465.943 171.74 465.469 171.375C465 171.01 464.414 170.828 463.711 170.828C463.034 170.828 462.461 171.003 461.992 171.352C461.529 171.701 461.177 172.187 460.938 172.812C460.698 173.437 460.578 174.167 460.578 175ZM474.203 165V181H471.867V165H474.203ZM477.346 181V169H479.682V181H477.346ZM478.525 167.148C478.119 167.148 477.77 167.013 477.479 166.742C477.192 166.466 477.049 166.138 477.049 165.758C477.049 165.372 477.192 165.044 477.479 164.773C477.77 164.497 478.119 164.359 478.525 164.359C478.932 164.359 479.278 164.497 479.564 164.773C479.856 165.044 480.002 165.372 480.002 165.758C480.002 166.138 479.856 166.466 479.564 166.742C479.278 167.013 478.932 167.148 478.525 167.148ZM488.426 169V170.875H481.871V169H488.426ZM483.629 166.125H485.965V177.477C485.965 177.93 486.033 178.271 486.168 178.5C486.303 178.724 486.478 178.878 486.691 178.961C486.91 179.039 487.147 179.078 487.402 179.078C487.59 179.078 487.754 179.065 487.895 179.039C488.035 179.013 488.145 178.992 488.223 178.977L488.645 180.906C488.509 180.958 488.316 181.01 488.066 181.063C487.816 181.12 487.504 181.151 487.129 181.156C486.514 181.167 485.941 181.057 485.41 180.828C484.879 180.599 484.449 180.245 484.121 179.766C483.793 179.286 483.629 178.685 483.629 177.961V166.125Z" fill="#16A34A"/>
<path d="M700.361 173.694C700.752 173.304 700.751 172.671 700.361 172.28L693.996 165.917C693.606 165.526 692.973 165.526 692.582 165.917C692.192 166.308 692.192 166.941 692.582 167.331L698.24 172.987L692.583 178.645C692.193 179.035 692.193 179.669 692.583 180.059C692.974 180.45 693.607 180.45 693.998 180.059L700.361 173.694ZM572 174L699.654 173.987L699.654 171.987L572 172L572 174Z" fill="#64748B"/>
<path d="M360.361 173.694C360.752 173.304 360.751 172.671 360.361 172.28L353.996 165.917C353.606 165.526 352.973 165.526 352.582 165.917C352.192 166.308 352.192 166.941 352.582 167.331L358.24 172.987L352.583 178.645C352.193 179.035 352.193 179.669 352.583 180.059C352.974 180.45 353.607 180.45 353.998 180.059L360.361 173.694ZM232 174L359.654 173.987L359.654 171.987L232 172L232 174Z" fill="#64748B"/>
<path d="M699.728 54.2071C700.119 53.8166 700.119 53.1834 699.728 52.7929L693.364 46.4289C692.974 46.0384 692.341 46.0384 691.95 46.4289C691.56 46.8195 691.56 47.4526 691.95 47.8431L697.607 53.5L691.95 59.1569C691.56 59.5474 691.56 60.1805 691.95 60.5711C692.341 60.9616 692.974 60.9616 693.364 60.5711L699.728 54.2071ZM572 173.5H620.011V171.5H572V173.5ZM637.011 156.5V69.5H635.011V156.5H637.011ZM652.011 54.5H699.021V52.5H652.011V54.5ZM637.011 69.5C637.011 61.2157 643.726 54.5 652.011 54.5V52.5C642.622 52.5 635.011 60.1112 635.011 69.5H637.011ZM620.011 173.5C629.399 173.5 637.011 165.889 637.011 156.5H635.011C635.011 164.784 628.295 171.5 620.011 171.5V173.5Z" fill="#64748B"/>
<path d="M699.728 292.207C700.119 291.817 700.119 291.183 699.728 290.793L693.364 284.429C692.974 284.038 692.341 284.038 691.95 284.429C691.56 284.819 691.56 285.453 691.95 285.843L697.607 291.5L691.95 297.157C691.56 297.547 691.56 298.181 691.95 298.571C692.341 298.962 692.974 298.962 693.364 298.571L699.728 292.207ZM572 173.5H620.011V171.5H572V173.5ZM635.011 188.5V275.5H637.011V188.5H635.011ZM652.011 292.5H699.021V290.5H652.011V292.5ZM635.011 275.5C635.011 284.889 642.622 292.5 652.011 292.5V290.5C643.726 290.5 637.011 283.784 637.011 275.5H635.011ZM620.011 173.5C628.295 173.5 635.011 180.216 635.011 188.5H637.011C637.011 179.111 629.399 171.5 620.011 171.5V173.5Z" fill="#64748B"/>
</svg>
