<svg width="932" height="303" viewBox="0 0 932 303" fill="none" xmlns="http://www.w3.org/2000/svg">
<rect width="932" height="303" rx="4" fill="#27272A"/>
<path d="M499.102 58.2173C498.479 58.2173 497.917 58.1023 497.414 57.8722C496.911 57.6378 496.513 57.299 496.219 56.8558C495.929 56.4126 495.784 55.8693 495.784 55.2259C495.784 54.6719 495.891 54.2159 496.104 53.858C496.317 53.5 496.604 53.2166 496.967 53.0078C497.329 52.799 497.734 52.6413 498.181 52.5348C498.629 52.4283 499.084 52.3473 499.549 52.2919C500.137 52.2237 500.614 52.1683 500.981 52.1257C501.347 52.0788 501.614 52.0043 501.78 51.902C501.946 51.7997 502.029 51.6335 502.029 51.4034V51.3587C502.029 50.8004 501.871 50.3679 501.556 50.0611C501.245 49.7543 500.78 49.6009 500.163 49.6009C499.519 49.6009 499.012 49.7436 498.641 50.0291C498.275 50.3104 498.021 50.6236 497.881 50.9688L496.084 50.5597C496.298 49.9631 496.609 49.4815 497.018 49.1151C497.431 48.7443 497.906 48.4759 498.443 48.3097C498.98 48.1392 499.545 48.054 500.137 48.054C500.529 48.054 500.945 48.1009 501.383 48.1946C501.827 48.2841 502.24 48.4503 502.624 48.6932C503.011 48.9361 503.329 49.2834 503.576 49.7351C503.823 50.1825 503.947 50.7642 503.947 51.4801V58H502.08V56.6577H502.004C501.88 56.9048 501.695 57.1477 501.447 57.3864C501.2 57.625 500.883 57.8232 500.495 57.9808C500.107 58.1385 499.643 58.2173 499.102 58.2173ZM499.517 56.6832C500.045 56.6832 500.497 56.5788 500.872 56.37C501.251 56.1612 501.539 55.8885 501.735 55.5518C501.935 55.2109 502.035 54.8466 502.035 54.4588V53.1932C501.967 53.2614 501.835 53.3253 501.639 53.3849C501.447 53.4403 501.228 53.4893 500.981 53.532C500.734 53.5703 500.493 53.6065 500.258 53.6406C500.024 53.6705 499.828 53.696 499.67 53.7173C499.3 53.7642 498.961 53.843 498.654 53.9538C498.352 54.0646 498.109 54.2244 497.925 54.4332C497.746 54.6378 497.657 54.9105 497.657 55.2514C497.657 55.7244 497.832 56.0824 498.181 56.3253C498.53 56.5639 498.976 56.6832 499.517 56.6832ZM508.404 44.9091V58H506.492V44.9091H508.404ZM510.975 58V48.1818H512.886V58H510.975ZM511.94 46.6669C511.608 46.6669 511.322 46.5561 511.083 46.3345C510.849 46.1087 510.732 45.8402 510.732 45.5291C510.732 45.2138 510.849 44.9453 511.083 44.7237C511.322 44.4979 511.608 44.3849 511.94 44.3849C512.272 44.3849 512.556 44.4979 512.79 44.7237C513.029 44.9453 513.148 45.2138 513.148 45.5291C513.148 45.8402 513.029 46.1087 512.79 46.3345C512.556 46.5561 512.272 46.6669 511.94 46.6669ZM519.593 58.1982C518.643 58.1982 517.824 57.983 517.138 57.5526C516.456 57.1179 515.932 56.5192 515.566 55.7564C515.199 54.9936 515.016 54.12 515.016 53.1357C515.016 52.1385 515.204 51.2585 515.579 50.4957C515.954 49.7287 516.482 49.13 517.164 48.6996C517.846 48.2692 518.649 48.054 519.574 48.054C520.319 48.054 520.984 48.1925 521.568 48.4695C522.152 48.7422 522.623 49.1257 522.981 49.62C523.343 50.1143 523.558 50.6918 523.626 51.3523H521.766C521.664 50.892 521.429 50.4957 521.063 50.1634C520.701 49.831 520.215 49.6648 519.606 49.6648C519.073 49.6648 518.606 49.8054 518.206 50.0866C517.809 50.3636 517.5 50.7599 517.279 51.2756C517.057 51.7869 516.947 52.392 516.947 53.0909C516.947 53.8068 517.055 54.4247 517.273 54.9446C517.49 55.4645 517.797 55.8672 518.193 56.1527C518.594 56.4382 519.064 56.581 519.606 56.581C519.968 56.581 520.296 56.5149 520.59 56.3828C520.888 56.2464 521.138 56.0526 521.338 55.8011C521.542 55.5497 521.685 55.2472 521.766 54.8935H523.626C523.558 55.5284 523.351 56.0952 523.006 56.5938C522.661 57.0923 522.199 57.4844 521.619 57.7699C521.044 58.0554 520.368 58.1982 519.593 58.1982ZM529.902 58.1982C528.934 58.1982 528.101 57.9915 527.402 57.5781C526.708 57.1605 526.171 56.5746 525.792 55.8203C525.417 55.0618 525.229 54.1733 525.229 53.1548C525.229 52.1491 525.417 51.2628 525.792 50.4957C526.171 49.7287 526.699 49.13 527.377 48.6996C528.059 48.2692 528.855 48.054 529.767 48.054C530.321 48.054 530.858 48.1456 531.378 48.3288C531.898 48.5121 532.365 48.7997 532.778 49.1918C533.191 49.5838 533.517 50.093 533.756 50.7195C533.995 51.3416 534.114 52.098 534.114 52.9886V53.6662H526.309V52.2344H532.241C532.241 51.7315 532.139 51.2862 531.934 50.8984C531.73 50.5064 531.442 50.1974 531.071 49.9716C530.705 49.7457 530.274 49.6328 529.78 49.6328C529.243 49.6328 528.774 49.7649 528.374 50.0291C527.978 50.2891 527.671 50.63 527.453 51.0518C527.24 51.4695 527.134 51.9233 527.134 52.4134V53.532C527.134 54.1882 527.249 54.7464 527.479 55.2067C527.713 55.6669 528.039 56.0185 528.457 56.2614C528.875 56.5 529.363 56.6193 529.921 56.6193C530.283 56.6193 530.613 56.5682 530.912 56.4659C531.21 56.3594 531.468 56.2017 531.685 55.9929C531.902 55.7841 532.068 55.5263 532.184 55.2195L533.992 55.5455C533.848 56.0781 533.588 56.5447 533.213 56.9453C532.842 57.3416 532.375 57.6506 531.813 57.8722C531.255 58.0895 530.617 58.1982 529.902 58.1982ZM537.494 58.1214C537.144 58.1214 536.844 57.9979 536.592 57.7507C536.341 57.4993 536.215 57.1967 536.215 56.843C536.215 56.4936 536.341 56.1953 536.592 55.9482C536.844 55.6967 537.144 55.571 537.494 55.571C537.843 55.571 538.144 55.6967 538.395 55.9482C538.646 56.1953 538.772 56.4936 538.772 56.843C538.772 57.0774 538.712 57.2926 538.593 57.4886C538.478 57.6804 538.325 57.8338 538.133 57.9489C537.941 58.0639 537.728 58.1214 537.494 58.1214ZM545.564 58.1982C544.596 58.1982 543.763 57.9915 543.064 57.5781C542.37 57.1605 541.833 56.5746 541.454 55.8203C541.079 55.0618 540.891 54.1733 540.891 53.1548C540.891 52.1491 541.079 51.2628 541.454 50.4957C541.833 49.7287 542.361 49.13 543.039 48.6996C543.721 48.2692 544.518 48.054 545.429 48.054C545.983 48.054 546.52 48.1456 547.04 48.3288C547.56 48.5121 548.027 48.7997 548.44 49.1918C548.853 49.5838 549.179 50.093 549.418 50.7195C549.657 51.3416 549.776 52.098 549.776 52.9886V53.6662H541.971V52.2344H547.903C547.903 51.7315 547.801 51.2862 547.596 50.8984C547.392 50.5064 547.104 50.1974 546.733 49.9716C546.367 49.7457 545.937 49.6328 545.442 49.6328C544.905 49.6328 544.437 49.7649 544.036 50.0291C543.64 50.2891 543.333 50.63 543.116 51.0518C542.902 51.4695 542.796 51.9233 542.796 52.4134V53.532C542.796 54.1882 542.911 54.7464 543.141 55.2067C543.375 55.6669 543.701 56.0185 544.119 56.2614C544.537 56.5 545.025 56.6193 545.583 56.6193C545.945 56.6193 546.275 56.5682 546.574 56.4659C546.872 56.3594 547.13 56.2017 547.347 55.9929C547.564 55.7841 547.731 55.5263 547.846 55.2195L549.655 55.5455C549.51 56.0781 549.25 56.5447 548.875 56.9453C548.504 57.3416 548.037 57.6506 547.475 57.8722C546.917 58.0895 546.28 58.1982 545.564 58.1982ZM556.48 48.1818V49.7159H551.117V48.1818H556.48ZM552.555 45.8295H554.466V55.1172C554.466 55.4879 554.522 55.767 554.632 55.9545C554.743 56.1378 554.886 56.2635 555.061 56.3317C555.24 56.3956 555.434 56.4276 555.642 56.4276C555.796 56.4276 555.93 56.4169 556.045 56.3956C556.16 56.3743 556.25 56.3572 556.314 56.3445L556.659 57.9233C556.548 57.9659 556.39 58.0085 556.186 58.0511C555.981 58.098 555.725 58.1236 555.419 58.1278C554.916 58.1364 554.447 58.0469 554.012 57.8594C553.578 57.6719 553.226 57.3821 552.958 56.9901C552.689 56.598 552.555 56.1058 552.555 55.5135V45.8295ZM560.716 52.1705V58H558.805V44.9091H560.69V49.7798H560.812C561.042 49.2514 561.394 48.8317 561.867 48.5206C562.34 48.2095 562.958 48.054 563.72 48.054C564.394 48.054 564.982 48.1925 565.485 48.4695C565.992 48.7464 566.384 49.1598 566.661 49.7095C566.942 50.255 567.083 50.9368 567.083 51.755V58H565.171V51.9851C565.171 51.2649 564.986 50.7067 564.615 50.3104C564.244 49.9098 563.729 49.7095 563.068 49.7095C562.617 49.7095 562.212 49.8054 561.854 49.9972C561.5 50.1889 561.221 50.4702 561.016 50.8409C560.816 51.2074 560.716 51.6506 560.716 52.1705Z" fill="#A1A1AA"/>
<rect x="456.154" y="24.5" width="151" height="53" rx="5.5" stroke="#71717A"/>
<path d="M499.702 138.5V125.409H501.614V130.273H501.729C501.839 130.069 501.999 129.832 502.208 129.564C502.417 129.295 502.707 129.061 503.077 128.861C503.448 128.656 503.938 128.554 504.548 128.554C505.34 128.554 506.048 128.754 506.67 129.155C507.292 129.555 507.78 130.133 508.133 130.887C508.491 131.641 508.67 132.549 508.67 133.61C508.67 134.671 508.494 135.581 508.14 136.339C507.786 137.094 507.3 137.675 506.682 138.085C506.065 138.489 505.359 138.692 504.567 138.692C503.97 138.692 503.482 138.592 503.103 138.391C502.728 138.191 502.434 137.957 502.221 137.688C502.008 137.42 501.844 137.181 501.729 136.972H501.569V138.5H499.702ZM501.575 133.591C501.575 134.281 501.675 134.886 501.876 135.406C502.076 135.926 502.366 136.333 502.745 136.627C503.124 136.917 503.589 137.062 504.138 137.062C504.709 137.062 505.187 136.911 505.57 136.608C505.954 136.301 506.244 135.886 506.44 135.362C506.64 134.837 506.74 134.247 506.74 133.591C506.74 132.943 506.642 132.362 506.446 131.846C506.254 131.33 505.964 130.923 505.577 130.625C505.193 130.327 504.714 130.178 504.138 130.178C503.584 130.178 503.116 130.32 502.732 130.606C502.353 130.891 502.065 131.29 501.869 131.801C501.673 132.312 501.575 132.909 501.575 133.591ZM514.952 138.698C514.032 138.698 513.228 138.487 512.542 138.065C511.856 137.643 511.324 137.053 510.944 136.295C510.565 135.536 510.375 134.65 510.375 133.636C510.375 132.617 510.565 131.727 510.944 130.964C511.324 130.201 511.856 129.609 512.542 129.187C513.228 128.765 514.032 128.554 514.952 128.554C515.873 128.554 516.676 128.765 517.362 129.187C518.048 129.609 518.581 130.201 518.96 130.964C519.339 131.727 519.529 132.617 519.529 133.636C519.529 134.65 519.339 135.536 518.96 136.295C518.581 137.053 518.048 137.643 517.362 138.065C516.676 138.487 515.873 138.698 514.952 138.698ZM514.959 137.094C515.555 137.094 516.049 136.936 516.442 136.621C516.834 136.305 517.123 135.886 517.311 135.362C517.503 134.837 517.599 134.26 517.599 133.629C517.599 133.003 517.503 132.428 517.311 131.903C517.123 131.375 516.834 130.951 516.442 130.631C516.049 130.312 515.555 130.152 514.959 130.152C514.358 130.152 513.859 130.312 513.463 130.631C513.071 130.951 512.779 131.375 512.587 131.903C512.4 132.428 512.306 133.003 512.306 133.629C512.306 134.26 512.4 134.837 512.587 135.362C512.779 135.886 513.071 136.305 513.463 136.621C513.859 136.936 514.358 137.094 514.959 137.094ZM521.816 138.5V125.409H523.727V130.273H523.842C523.953 130.069 524.113 129.832 524.321 129.564C524.53 129.295 524.82 129.061 525.191 128.861C525.561 128.656 526.051 128.554 526.661 128.554C527.453 128.554 528.161 128.754 528.783 129.155C529.405 129.555 529.893 130.133 530.247 130.887C530.605 131.641 530.784 132.549 530.784 133.61C530.784 134.671 530.607 135.581 530.253 136.339C529.899 137.094 529.414 137.675 528.796 138.085C528.178 138.489 527.473 138.692 526.68 138.692C526.083 138.692 525.595 138.592 525.216 138.391C524.841 138.191 524.547 137.957 524.334 137.688C524.121 137.42 523.957 137.181 523.842 136.972H523.682V138.5H521.816ZM523.689 133.591C523.689 134.281 523.789 134.886 523.989 135.406C524.189 135.926 524.479 136.333 524.858 136.627C525.238 136.917 525.702 137.062 526.252 137.062C526.823 137.062 527.3 136.911 527.684 136.608C528.067 136.301 528.357 135.886 528.553 135.362C528.753 134.837 528.853 134.247 528.853 133.591C528.853 132.943 528.755 132.362 528.559 131.846C528.367 131.33 528.078 130.923 527.69 130.625C527.306 130.327 526.827 130.178 526.252 130.178C525.698 130.178 525.229 130.32 524.845 130.606C524.466 130.891 524.179 131.29 523.983 131.801C523.787 132.312 523.689 132.909 523.689 133.591ZM534.189 138.621C533.84 138.621 533.539 138.498 533.288 138.251C533.036 137.999 532.911 137.697 532.911 137.343C532.911 136.994 533.036 136.695 533.288 136.448C533.539 136.197 533.84 136.071 534.189 136.071C534.538 136.071 534.839 136.197 535.09 136.448C535.342 136.695 535.467 136.994 535.467 137.343C535.467 137.577 535.408 137.793 535.288 137.989C535.173 138.18 535.02 138.334 534.828 138.449C534.636 138.564 534.423 138.621 534.189 138.621ZM542.259 138.698C541.292 138.698 540.459 138.491 539.76 138.078C539.065 137.661 538.528 137.075 538.149 136.32C537.774 135.562 537.586 134.673 537.586 133.655C537.586 132.649 537.774 131.763 538.149 130.996C538.528 130.229 539.057 129.63 539.734 129.2C540.416 128.769 541.213 128.554 542.125 128.554C542.679 128.554 543.216 128.646 543.736 128.829C544.255 129.012 544.722 129.3 545.135 129.692C545.549 130.084 545.875 130.593 546.113 131.219C546.352 131.842 546.471 132.598 546.471 133.489V134.166H538.667V132.734H544.599C544.599 132.232 544.496 131.786 544.292 131.398C544.087 131.006 543.799 130.697 543.429 130.472C543.062 130.246 542.632 130.133 542.138 130.133C541.601 130.133 541.132 130.265 540.731 130.529C540.335 130.789 540.028 131.13 539.811 131.552C539.598 131.969 539.491 132.423 539.491 132.913V134.032C539.491 134.688 539.606 135.246 539.836 135.707C540.071 136.167 540.397 136.518 540.814 136.761C541.232 137 541.72 137.119 542.278 137.119C542.64 137.119 542.971 137.068 543.269 136.966C543.567 136.859 543.825 136.702 544.042 136.493C544.26 136.284 544.426 136.026 544.541 135.719L546.35 136.045C546.205 136.578 545.945 137.045 545.57 137.445C545.199 137.842 544.733 138.151 544.17 138.372C543.612 138.589 542.975 138.698 542.259 138.698ZM553.175 128.682V130.216H547.812V128.682H553.175ZM549.25 126.33H551.162V135.617C551.162 135.988 551.217 136.267 551.328 136.455C551.439 136.638 551.581 136.763 551.756 136.832C551.935 136.896 552.129 136.928 552.338 136.928C552.491 136.928 552.625 136.917 552.74 136.896C552.855 136.874 552.945 136.857 553.009 136.844L553.354 138.423C553.243 138.466 553.086 138.509 552.881 138.551C552.676 138.598 552.421 138.624 552.114 138.628C551.611 138.636 551.142 138.547 550.708 138.359C550.273 138.172 549.921 137.882 549.653 137.49C549.385 137.098 549.25 136.606 549.25 136.013V126.33ZM557.411 132.67V138.5H555.5V125.409H557.386V130.28H557.507C557.737 129.751 558.089 129.332 558.562 129.021C559.035 128.71 559.653 128.554 560.416 128.554C561.089 128.554 561.677 128.692 562.18 128.969C562.687 129.246 563.079 129.66 563.356 130.21C563.637 130.755 563.778 131.437 563.778 132.255V138.5H561.867V132.485C561.867 131.765 561.681 131.207 561.311 130.81C560.94 130.41 560.424 130.21 559.764 130.21C559.312 130.21 558.907 130.305 558.549 130.497C558.195 130.689 557.916 130.97 557.712 131.341C557.511 131.707 557.411 132.151 557.411 132.67Z" fill="#A1A1AA"/>
<rect x="456.154" y="105" width="151" height="53" rx="5.5" stroke="#71717A"/>
<path d="M773.608 179.217C772.598 179.213 771.735 178.947 771.019 178.418C770.303 177.89 769.756 177.121 769.376 176.111C768.997 175.101 768.807 173.884 768.807 172.461C768.807 171.042 768.997 169.83 769.376 168.824C769.76 167.818 770.309 167.051 771.025 166.523C771.746 165.994 772.606 165.73 773.608 165.73C774.609 165.73 775.468 165.996 776.184 166.529C776.9 167.058 777.447 167.825 777.827 168.83C778.21 169.832 778.402 171.042 778.402 172.461C778.402 173.888 778.212 175.107 777.833 176.117C777.454 177.123 776.906 177.892 776.19 178.425C775.474 178.953 774.613 179.217 773.608 179.217ZM773.608 177.511C774.494 177.511 775.187 177.078 775.685 176.213C776.188 175.348 776.439 174.097 776.439 172.461C776.439 171.374 776.324 170.456 776.094 169.706C775.868 168.952 775.542 168.381 775.116 167.993C774.694 167.601 774.192 167.405 773.608 167.405C772.726 167.405 772.033 167.839 771.53 168.709C771.028 169.578 770.774 170.829 770.77 172.461C770.77 173.552 770.883 174.474 771.108 175.229C771.339 175.979 771.665 176.548 772.086 176.935C772.508 177.319 773.015 177.511 773.608 177.511ZM782.203 169.182L784.37 173.004L786.556 169.182H788.647L785.585 174.091L788.672 179H786.582L784.37 175.331L782.165 179H780.069L783.124 174.091L780.107 169.182H782.203ZM790.762 179V165.909H798.88V167.609H792.738V171.598H798.299V173.292H792.738V179H790.762ZM805.828 169.182V170.716H800.28V169.182H805.828ZM801.801 179V168.044C801.801 167.43 801.936 166.921 802.204 166.516C802.473 166.107 802.828 165.803 803.272 165.602C803.715 165.398 804.196 165.295 804.716 165.295C805.1 165.295 805.428 165.327 805.701 165.391C805.973 165.451 806.176 165.506 806.308 165.558L805.86 167.104C805.771 167.079 805.656 167.049 805.515 167.015C805.375 166.977 805.204 166.957 805.004 166.957C804.539 166.957 804.207 167.072 804.007 167.303C803.811 167.533 803.713 167.865 803.713 168.3V179H801.801ZM810.359 179.217C809.737 179.217 809.174 179.102 808.671 178.872C808.169 178.638 807.77 178.299 807.476 177.856C807.186 177.413 807.041 176.869 807.041 176.226C807.041 175.672 807.148 175.216 807.361 174.858C807.574 174.5 807.862 174.217 808.224 174.008C808.586 173.799 808.991 173.641 809.438 173.535C809.886 173.428 810.342 173.347 810.806 173.292C811.394 173.224 811.872 173.168 812.238 173.126C812.605 173.079 812.871 173.004 813.037 172.902C813.203 172.8 813.286 172.634 813.286 172.403V172.359C813.286 171.8 813.129 171.368 812.813 171.061C812.502 170.754 812.038 170.601 811.42 170.601C810.776 170.601 810.269 170.744 809.899 171.029C809.532 171.31 809.279 171.624 809.138 171.969L807.342 171.56C807.555 170.963 807.866 170.482 808.275 170.115C808.688 169.744 809.164 169.476 809.7 169.31C810.237 169.139 810.802 169.054 811.394 169.054C811.786 169.054 812.202 169.101 812.641 169.195C813.084 169.284 813.497 169.45 813.881 169.693C814.269 169.936 814.586 170.283 814.833 170.735C815.08 171.183 815.204 171.764 815.204 172.48V179H813.338V177.658H813.261C813.137 177.905 812.952 178.148 812.705 178.386C812.458 178.625 812.14 178.823 811.752 178.981C811.365 179.138 810.9 179.217 810.359 179.217ZM810.774 177.683C811.303 177.683 811.754 177.579 812.129 177.37C812.509 177.161 812.796 176.888 812.992 176.552C813.193 176.211 813.293 175.847 813.293 175.459V174.193C813.225 174.261 813.093 174.325 812.896 174.385C812.705 174.44 812.485 174.489 812.238 174.532C811.991 174.57 811.75 174.607 811.516 174.641C811.281 174.67 811.085 174.696 810.928 174.717C810.557 174.764 810.218 174.843 809.911 174.954C809.609 175.065 809.366 175.224 809.183 175.433C809.004 175.638 808.914 175.911 808.914 176.251C808.914 176.724 809.089 177.082 809.438 177.325C809.788 177.564 810.233 177.683 810.774 177.683ZM822.147 179.179C821.231 179.179 820.422 179.021 819.718 178.706C819.02 178.391 818.472 177.956 818.076 177.402C817.679 176.848 817.483 176.217 817.488 175.51C817.483 174.956 817.596 174.447 817.826 173.982C818.061 173.513 818.378 173.124 818.779 172.812C819.179 172.497 819.627 172.297 820.121 172.212V172.135C819.469 171.977 818.947 171.628 818.555 171.087C818.163 170.545 817.969 169.923 817.973 169.22C817.969 168.551 818.146 167.955 818.504 167.43C818.866 166.902 819.363 166.487 819.993 166.184C820.624 165.881 821.342 165.73 822.147 165.73C822.944 165.73 823.656 165.884 824.282 166.19C824.913 166.493 825.409 166.908 825.772 167.437C826.134 167.961 826.317 168.555 826.321 169.22C826.317 169.923 826.117 170.545 825.721 171.087C825.324 171.628 824.809 171.977 824.174 172.135V172.212C824.664 172.297 825.105 172.497 825.497 172.812C825.893 173.124 826.208 173.513 826.443 173.982C826.681 174.447 826.803 174.956 826.807 175.51C826.803 176.217 826.603 176.848 826.206 177.402C825.81 177.956 825.26 178.391 824.557 178.706C823.858 179.021 823.055 179.179 822.147 179.179ZM822.147 177.562C822.689 177.562 823.157 177.472 823.554 177.293C823.95 177.11 824.257 176.857 824.474 176.533C824.691 176.205 824.802 175.821 824.806 175.382C824.802 174.926 824.683 174.523 824.449 174.174C824.218 173.825 823.905 173.55 823.509 173.349C823.113 173.149 822.659 173.049 822.147 173.049C821.632 173.049 821.174 173.149 820.773 173.349C820.373 173.55 820.057 173.825 819.827 174.174C819.597 174.523 819.484 174.926 819.488 175.382C819.484 175.821 819.588 176.205 819.801 176.533C820.019 176.857 820.328 177.11 820.728 177.293C821.129 177.472 821.602 177.562 822.147 177.562ZM822.147 171.47C822.582 171.47 822.968 171.383 823.304 171.208C823.641 171.033 823.905 170.79 824.097 170.479C824.293 170.168 824.393 169.804 824.397 169.386C824.393 168.977 824.295 168.619 824.103 168.312C823.916 168.006 823.654 167.769 823.317 167.603C822.98 167.433 822.591 167.347 822.147 167.347C821.696 167.347 821.299 167.433 820.958 167.603C820.622 167.769 820.36 168.006 820.172 168.312C819.985 168.619 819.893 168.977 819.897 169.386C819.893 169.804 819.987 170.168 820.179 170.479C820.37 170.79 820.635 171.033 820.971 171.208C821.312 171.383 821.704 171.47 822.147 171.47ZM829.995 179.121C829.646 179.121 829.345 178.998 829.094 178.751C828.843 178.499 828.717 178.197 828.717 177.843C828.717 177.494 828.843 177.195 829.094 176.948C829.345 176.697 829.646 176.571 829.995 176.571C830.345 176.571 830.645 176.697 830.896 176.948C831.148 177.195 831.274 177.494 831.274 177.843C831.274 178.077 831.214 178.293 831.095 178.489C830.98 178.68 830.826 178.834 830.634 178.949C830.443 179.064 830.23 179.121 829.995 179.121ZM835.093 179.121C834.743 179.121 834.443 178.998 834.192 178.751C833.94 178.499 833.814 178.197 833.814 177.843C833.814 177.494 833.94 177.195 834.192 176.948C834.443 176.697 834.743 176.571 835.093 176.571C835.442 176.571 835.743 176.697 835.994 176.948C836.246 177.195 836.371 177.494 836.371 177.843C836.371 178.077 836.312 178.293 836.192 178.489C836.077 178.68 835.924 178.834 835.732 178.949C835.54 179.064 835.327 179.121 835.093 179.121ZM840.191 179.121C839.841 179.121 839.541 178.998 839.289 178.751C839.038 178.499 838.912 178.197 838.912 177.843C838.912 177.494 839.038 177.195 839.289 176.948C839.541 176.697 839.841 176.571 840.191 176.571C840.54 176.571 840.84 176.697 841.092 176.948C841.343 177.195 841.469 177.494 841.469 177.843C841.469 178.077 841.409 178.293 841.29 178.489C841.175 178.68 841.021 178.834 840.83 178.949C840.638 179.064 840.425 179.121 840.191 179.121ZM844.11 179L849.825 167.699V167.603H843.216V165.909H851.87V167.661L846.175 179H844.11ZM854.886 179L860.6 167.699V167.603H853.991V165.909H862.646V167.661L856.95 179H854.886ZM864.594 170.019C864.594 169.18 864.779 168.438 865.15 167.795C865.521 167.151 866.03 166.646 866.678 166.28C867.33 165.913 868.071 165.73 868.902 165.73C869.724 165.73 870.464 165.913 871.12 166.28C871.781 166.642 872.3 167.151 872.68 167.808C873.063 168.46 873.251 169.22 873.242 170.089C873.238 170.516 873.176 170.95 873.057 171.393C872.938 171.837 872.746 172.318 872.482 172.838C872.217 173.358 871.864 173.948 871.42 174.609L868.455 179H866.364L869.727 174.085C869.569 174.136 869.407 174.178 869.241 174.212C869.075 174.242 868.906 174.257 868.736 174.257C867.935 174.257 867.223 174.074 866.601 173.707C865.979 173.341 865.489 172.84 865.131 172.205C864.773 171.57 864.594 170.842 864.594 170.019ZM866.486 169.987C866.486 170.503 866.588 170.959 866.793 171.355C866.997 171.747 867.281 172.054 867.643 172.276C868.009 172.497 868.431 172.608 868.908 172.608C869.381 172.608 869.801 172.497 870.168 172.276C870.534 172.054 870.82 171.749 871.024 171.362C871.233 170.969 871.337 170.52 871.337 170.013C871.337 169.497 871.233 169.041 871.024 168.645C870.82 168.249 870.534 167.937 870.168 167.712C869.801 167.486 869.381 167.373 868.908 167.373C868.431 167.373 868.009 167.486 867.643 167.712C867.281 167.933 866.997 168.242 866.793 168.638C866.588 169.031 866.486 169.48 866.486 169.987ZM875.321 174.82C875.33 174.393 875.392 173.959 875.507 173.516C875.626 173.072 875.818 172.591 876.082 172.071C876.346 171.551 876.7 170.961 877.143 170.3L880.115 165.909H882.199L878.843 170.818C878.997 170.771 879.156 170.733 879.323 170.703C879.493 170.669 879.664 170.652 879.834 170.652C880.631 170.652 881.34 170.835 881.963 171.202C882.585 171.568 883.075 172.069 883.433 172.704C883.795 173.339 883.976 174.067 883.976 174.89C883.976 175.729 883.789 176.471 883.414 177.114C883.043 177.758 882.531 178.263 881.879 178.629C881.232 178.996 880.492 179.179 879.661 179.179C878.839 179.179 878.097 178.998 877.437 178.636C876.781 178.269 876.263 177.76 875.884 177.108C875.504 176.452 875.317 175.689 875.321 174.82ZM877.232 174.896C877.232 175.412 877.335 175.868 877.539 176.264C877.744 176.661 878.029 176.972 878.396 177.197C878.762 177.423 879.184 177.536 879.661 177.536C880.134 177.536 880.552 177.425 880.914 177.204C881.281 176.978 881.566 176.669 881.771 176.277C881.98 175.881 882.084 175.429 882.084 174.922C882.084 174.406 881.98 173.952 881.771 173.56C881.566 173.164 881.281 172.855 880.914 172.634C880.552 172.412 880.134 172.301 879.661 172.301C879.184 172.301 878.762 172.412 878.396 172.634C878.029 172.855 877.744 173.162 877.539 173.554C877.335 173.942 877.232 174.389 877.232 174.896Z" fill="#A1A1AA"/>
<rect x="750.87" y="145.5" width="151" height="53" rx="5.5" stroke="#71717A"/>
<path d="M768.24 259V245.909H776.447V247.609H770.215V251.598H776.019V253.292H770.215V257.3H776.524V259H768.24ZM778.44 247.609V245.909H788.571V247.609H784.487V259H782.518V247.609H778.44ZM790.81 259V245.909H792.785V251.598H799.312V245.909H801.293V259H799.312V253.292H792.785V259H790.81ZM813.029 250.045C812.905 249.657 812.739 249.31 812.53 249.003C812.326 248.692 812.081 248.428 811.795 248.21C811.51 247.989 811.184 247.82 810.817 247.705C810.455 247.59 810.057 247.533 809.622 247.533C808.885 247.533 808.22 247.722 807.628 248.102C807.035 248.481 806.567 249.037 806.222 249.77C805.881 250.499 805.71 251.391 805.71 252.448C805.71 253.509 805.883 254.406 806.228 255.139C806.573 255.872 807.046 256.428 807.647 256.808C808.248 257.187 808.932 257.376 809.699 257.376C810.41 257.376 811.03 257.232 811.559 256.942C812.092 256.652 812.503 256.243 812.793 255.714C813.087 255.182 813.234 254.555 813.234 253.835L813.745 253.931H809.999V252.301H815.145V253.79C815.145 254.89 814.91 255.844 814.442 256.654C813.977 257.46 813.334 258.082 812.511 258.521C811.693 258.96 810.756 259.179 809.699 259.179C808.514 259.179 807.474 258.906 806.579 258.361C805.689 257.815 804.994 257.042 804.496 256.04C803.997 255.035 803.748 253.842 803.748 252.461C803.748 251.417 803.893 250.479 804.182 249.648C804.472 248.817 804.879 248.112 805.403 247.533C805.932 246.949 806.552 246.504 807.263 246.197C807.979 245.886 808.761 245.73 809.609 245.73C810.317 245.73 810.975 245.835 811.584 246.043C812.198 246.252 812.744 246.548 813.221 246.932C813.702 247.315 814.101 247.771 814.416 248.3C814.731 248.824 814.945 249.406 815.055 250.045H813.029ZM819.41 245.909V259H817.499V245.909H819.41ZM826.117 259.198C825.196 259.198 824.393 258.987 823.707 258.565C823.021 258.143 822.488 257.553 822.109 256.795C821.73 256.036 821.54 255.15 821.54 254.136C821.54 253.117 821.73 252.227 822.109 251.464C822.488 250.701 823.021 250.109 823.707 249.687C824.393 249.265 825.196 249.054 826.117 249.054C827.037 249.054 827.84 249.265 828.527 249.687C829.213 250.109 829.745 250.701 830.125 251.464C830.504 252.227 830.693 253.117 830.693 254.136C830.693 255.15 830.504 256.036 830.125 256.795C829.745 257.553 829.213 258.143 828.527 258.565C827.84 258.987 827.037 259.198 826.117 259.198ZM826.123 257.594C826.72 257.594 827.214 257.436 827.606 257.121C827.998 256.805 828.288 256.386 828.475 255.862C828.667 255.337 828.763 254.76 828.763 254.129C828.763 253.503 828.667 252.928 828.475 252.403C828.288 251.875 827.998 251.451 827.606 251.131C827.214 250.812 826.72 250.652 826.123 250.652C825.522 250.652 825.024 250.812 824.627 251.131C824.235 251.451 823.943 251.875 823.752 252.403C823.564 252.928 823.47 253.503 823.47 254.129C823.47 254.76 823.564 255.337 823.752 255.862C823.943 256.386 824.235 256.805 824.627 257.121C825.024 257.436 825.522 257.594 826.123 257.594ZM832.98 259V245.909H834.891V250.773H835.006C835.117 250.569 835.277 250.332 835.486 250.064C835.695 249.795 835.984 249.561 836.355 249.361C836.726 249.156 837.216 249.054 837.825 249.054C838.618 249.054 839.325 249.254 839.948 249.655C840.57 250.055 841.058 250.633 841.411 251.387C841.769 252.141 841.948 253.049 841.948 254.11C841.948 255.171 841.771 256.081 841.418 256.839C841.064 257.594 840.578 258.175 839.96 258.585C839.342 258.989 838.637 259.192 837.845 259.192C837.248 259.192 836.76 259.092 836.381 258.891C836.006 258.691 835.712 258.457 835.499 258.188C835.286 257.92 835.122 257.681 835.006 257.472H834.847V259H832.98ZM834.853 254.091C834.853 254.781 834.953 255.386 835.153 255.906C835.354 256.426 835.644 256.833 836.023 257.127C836.402 257.417 836.867 257.562 837.416 257.562C837.987 257.562 838.465 257.411 838.848 257.108C839.232 256.801 839.521 256.386 839.717 255.862C839.918 255.337 840.018 254.747 840.018 254.091C840.018 253.443 839.92 252.862 839.724 252.346C839.532 251.83 839.242 251.423 838.854 251.125C838.471 250.827 837.992 250.678 837.416 250.678C836.862 250.678 836.394 250.82 836.01 251.106C835.631 251.391 835.343 251.79 835.147 252.301C834.951 252.812 834.853 253.409 834.853 254.091ZM846.952 259.217C846.329 259.217 845.767 259.102 845.264 258.872C844.761 258.638 844.363 258.299 844.069 257.856C843.779 257.413 843.634 256.869 843.634 256.226C843.634 255.672 843.741 255.216 843.954 254.858C844.167 254.5 844.454 254.217 844.817 254.008C845.179 253.799 845.584 253.641 846.031 253.535C846.479 253.428 846.935 253.347 847.399 253.292C847.987 253.224 848.464 253.168 848.831 253.126C849.197 253.079 849.464 253.004 849.63 252.902C849.796 252.8 849.879 252.634 849.879 252.403V252.359C849.879 251.8 849.722 251.368 849.406 251.061C849.095 250.754 848.631 250.601 848.013 250.601C847.369 250.601 846.862 250.744 846.491 251.029C846.125 251.31 845.871 251.624 845.731 251.969L843.935 251.56C844.148 250.963 844.459 250.482 844.868 250.115C845.281 249.744 845.756 249.476 846.293 249.31C846.83 249.139 847.395 249.054 847.987 249.054C848.379 249.054 848.795 249.101 849.234 249.195C849.677 249.284 850.09 249.45 850.474 249.693C850.861 249.936 851.179 250.283 851.426 250.735C851.673 251.183 851.797 251.764 851.797 252.48V259H849.93V257.658H849.854C849.73 257.905 849.545 258.148 849.297 258.386C849.05 258.625 848.733 258.823 848.345 258.981C847.957 259.138 847.493 259.217 846.952 259.217ZM847.367 257.683C847.896 257.683 848.347 257.579 848.722 257.37C849.101 257.161 849.389 256.888 849.585 256.552C849.785 256.211 849.886 255.847 849.886 255.459V254.193C849.817 254.261 849.685 254.325 849.489 254.385C849.297 254.44 849.078 254.489 848.831 254.532C848.584 254.57 848.343 254.607 848.109 254.641C847.874 254.67 847.678 254.696 847.521 254.717C847.15 254.764 846.811 254.843 846.504 254.954C846.202 255.065 845.959 255.224 845.775 255.433C845.597 255.638 845.507 255.911 845.507 256.251C845.507 256.724 845.682 257.082 846.031 257.325C846.381 257.564 846.826 257.683 847.367 257.683ZM856.254 245.909V259H854.342V245.909H856.254ZM860.084 259.121C859.735 259.121 859.434 258.998 859.183 258.751C858.931 258.499 858.806 258.197 858.806 257.843C858.806 257.494 858.931 257.195 859.183 256.948C859.434 256.697 859.735 256.571 860.084 256.571C860.434 256.571 860.734 256.697 860.985 256.948C861.237 257.195 861.362 257.494 861.362 257.843C861.362 258.077 861.303 258.293 861.184 258.489C861.068 258.68 860.915 258.834 860.723 258.949C860.532 259.064 860.318 259.121 860.084 259.121ZM868.154 259.198C867.187 259.198 866.354 258.991 865.655 258.578C864.96 258.161 864.423 257.575 864.044 256.82C863.669 256.062 863.481 255.173 863.481 254.155C863.481 253.149 863.669 252.263 864.044 251.496C864.423 250.729 864.952 250.13 865.629 249.7C866.311 249.269 867.108 249.054 868.02 249.054C868.574 249.054 869.111 249.146 869.631 249.329C870.15 249.512 870.617 249.8 871.03 250.192C871.444 250.584 871.77 251.093 872.008 251.719C872.247 252.342 872.366 253.098 872.366 253.989V254.666H864.562V253.234H870.494C870.494 252.732 870.391 252.286 870.187 251.898C869.982 251.506 869.695 251.197 869.324 250.972C868.957 250.746 868.527 250.633 868.033 250.633C867.496 250.633 867.027 250.765 866.626 251.029C866.23 251.289 865.923 251.63 865.706 252.052C865.493 252.469 865.386 252.923 865.386 253.413V254.532C865.386 255.188 865.501 255.746 865.731 256.207C865.966 256.667 866.292 257.018 866.709 257.261C867.127 257.5 867.615 257.619 868.173 257.619C868.535 257.619 868.866 257.568 869.164 257.466C869.462 257.359 869.72 257.202 869.937 256.993C870.155 256.784 870.321 256.526 870.436 256.219L872.245 256.545C872.1 257.078 871.84 257.545 871.465 257.945C871.094 258.342 870.628 258.651 870.065 258.872C869.507 259.089 868.87 259.198 868.154 259.198ZM879.07 249.182V250.716H873.707V249.182H879.07ZM875.145 246.83H877.057V256.117C877.057 256.488 877.112 256.767 877.223 256.955C877.334 257.138 877.476 257.263 877.651 257.332C877.83 257.396 878.024 257.428 878.233 257.428C878.386 257.428 878.52 257.417 878.635 257.396C878.75 257.374 878.84 257.357 878.904 257.344L879.249 258.923C879.138 258.966 878.981 259.009 878.776 259.051C878.571 259.098 878.316 259.124 878.009 259.128C877.506 259.136 877.037 259.047 876.603 258.859C876.168 258.672 875.816 258.382 875.548 257.99C875.28 257.598 875.145 257.106 875.145 256.513V246.83ZM883.306 253.17V259H881.395V245.909H883.281V250.78H883.402C883.632 250.251 883.984 249.832 884.457 249.521C884.93 249.21 885.548 249.054 886.311 249.054C886.984 249.054 887.572 249.192 888.075 249.469C888.582 249.746 888.974 250.16 889.251 250.71C889.532 251.255 889.673 251.937 889.673 252.755V259H887.762V252.985C887.762 252.265 887.576 251.707 887.206 251.31C886.835 250.91 886.319 250.71 885.659 250.71C885.207 250.71 884.802 250.805 884.444 250.997C884.09 251.189 883.811 251.47 883.607 251.841C883.407 252.207 883.306 252.651 883.306 253.17Z" fill="#A1A1AA"/>
<rect x="750.87" y="225.5" width="151" height="53" rx="5.5" stroke="#71717A"/>
<rect x="456.154" y="186.5" width="151" height="53" rx="5.5" fill="#3F3F46"/>
<path d="M521.054 210.348C520.986 209.743 520.705 209.274 520.21 208.942C519.716 208.605 519.094 208.437 518.344 208.437C517.807 208.437 517.343 208.522 516.951 208.692C516.558 208.859 516.254 209.089 516.036 209.383C515.823 209.673 515.717 210.003 515.717 210.374C515.717 210.685 515.789 210.953 515.934 211.179C516.083 211.405 516.277 211.594 516.516 211.748C516.759 211.897 517.019 212.023 517.296 212.125C517.573 212.223 517.839 212.304 518.095 212.368L519.373 212.7C519.791 212.803 520.219 212.941 520.658 213.116C521.097 213.29 521.504 213.521 521.879 213.806C522.254 214.092 522.556 214.445 522.786 214.867C523.021 215.289 523.138 215.794 523.138 216.382C523.138 217.124 522.946 217.782 522.563 218.357C522.183 218.933 521.632 219.386 520.907 219.719C520.187 220.051 519.316 220.217 518.293 220.217C517.313 220.217 516.465 220.062 515.749 219.751C515.033 219.44 514.473 218.999 514.068 218.428C513.663 217.852 513.439 217.17 513.397 216.382H515.378C515.416 216.855 515.57 217.249 515.838 217.565C516.111 217.876 516.458 218.108 516.88 218.261C517.306 218.411 517.773 218.485 518.28 218.485C518.838 218.485 519.335 218.398 519.769 218.223C520.208 218.044 520.553 217.797 520.805 217.482C521.056 217.162 521.182 216.789 521.182 216.363C521.182 215.975 521.071 215.658 520.85 215.411C520.632 215.163 520.336 214.959 519.961 214.797C519.59 214.635 519.171 214.492 518.702 214.369L517.155 213.947C516.107 213.661 515.276 213.241 514.662 212.688C514.053 212.134 513.748 211.401 513.748 210.489C513.748 209.734 513.953 209.076 514.362 208.513C514.771 207.951 515.325 207.514 516.024 207.203C516.723 206.888 517.511 206.73 518.389 206.73C519.275 206.73 520.057 206.886 520.735 207.197C521.416 207.508 521.953 207.936 522.345 208.482C522.737 209.023 522.942 209.645 522.959 210.348H521.054ZM525.345 223.682V210.182H527.211V211.773H527.371C527.482 211.569 527.642 211.332 527.851 211.064C528.059 210.795 528.349 210.561 528.72 210.361C529.091 210.156 529.581 210.054 530.19 210.054C530.983 210.054 531.69 210.254 532.312 210.655C532.934 211.055 533.422 211.633 533.776 212.387C534.134 213.141 534.313 214.049 534.313 215.11C534.313 216.171 534.136 217.081 533.782 217.839C533.429 218.594 532.943 219.175 532.325 219.585C531.707 219.989 531.002 220.192 530.209 220.192C529.613 220.192 529.125 220.092 528.745 219.891C528.37 219.691 528.076 219.457 527.863 219.188C527.65 218.92 527.486 218.681 527.371 218.472H527.256V223.682H525.345ZM527.218 215.091C527.218 215.781 527.318 216.386 527.518 216.906C527.718 217.426 528.008 217.833 528.387 218.127C528.767 218.417 529.231 218.562 529.781 218.562C530.352 218.562 530.829 218.411 531.213 218.108C531.596 217.801 531.886 217.386 532.082 216.862C532.282 216.337 532.383 215.747 532.383 215.091C532.383 214.443 532.284 213.862 532.088 213.346C531.897 212.83 531.607 212.423 531.219 212.125C530.836 211.827 530.356 211.678 529.781 211.678C529.227 211.678 528.758 211.82 528.375 212.106C527.995 212.391 527.708 212.79 527.512 213.301C527.316 213.812 527.218 214.409 527.218 215.091ZM538.365 206.909V220H536.454V206.909H538.365ZM540.937 220V210.182H542.848V220H540.937ZM541.902 208.667C541.569 208.667 541.284 208.556 541.045 208.335C540.811 208.109 540.694 207.84 540.694 207.529C540.694 207.214 540.811 206.945 541.045 206.724C541.284 206.498 541.569 206.385 541.902 206.385C542.234 206.385 542.518 206.498 542.752 206.724C542.991 206.945 543.11 207.214 543.11 207.529C543.11 207.84 542.991 208.109 542.752 208.335C542.518 208.556 542.234 208.667 541.902 208.667ZM550.002 210.182V211.716H544.639V210.182H550.002ZM546.077 207.83H547.989V217.117C547.989 217.488 548.044 217.767 548.155 217.955C548.266 218.138 548.408 218.263 548.583 218.332C548.762 218.396 548.956 218.428 549.165 218.428C549.318 218.428 549.452 218.417 549.568 218.396C549.683 218.374 549.772 218.357 549.836 218.344L550.181 219.923C550.07 219.966 549.913 220.009 549.708 220.051C549.504 220.098 549.248 220.124 548.941 220.128C548.438 220.136 547.97 220.047 547.535 219.859C547.1 219.672 546.749 219.382 546.48 218.99C546.212 218.598 546.077 218.106 546.077 217.513V207.83Z" fill="#F4F4F5"/>
<rect x="456.154" y="186.5" width="151" height="53" rx="5.5" stroke="#71717A"/>
<rect x="160.5" y="105.5" width="151" height="53" rx="5.5" fill="#3F3F46"/>
<path d="M225.4 129.348C225.332 128.743 225.051 128.274 224.557 127.942C224.062 127.605 223.44 127.437 222.69 127.437C222.153 127.437 221.689 127.522 221.297 127.692C220.905 127.859 220.6 128.089 220.383 128.383C220.17 128.673 220.063 129.003 220.063 129.374C220.063 129.685 220.135 129.953 220.28 130.179C220.43 130.405 220.623 130.594 220.862 130.748C221.105 130.897 221.365 131.023 221.642 131.125C221.919 131.223 222.185 131.304 222.441 131.368L223.719 131.7C224.137 131.803 224.565 131.941 225.004 132.116C225.443 132.29 225.85 132.521 226.225 132.806C226.6 133.092 226.903 133.445 227.133 133.867C227.367 134.289 227.484 134.794 227.484 135.382C227.484 136.124 227.292 136.782 226.909 137.357C226.53 137.933 225.978 138.386 225.253 138.719C224.533 139.051 223.662 139.217 222.639 139.217C221.659 139.217 220.811 139.062 220.095 138.751C219.379 138.44 218.819 137.999 218.414 137.428C218.009 136.852 217.785 136.17 217.743 135.382H219.724C219.763 135.855 219.916 136.249 220.184 136.565C220.457 136.876 220.805 137.108 221.226 137.261C221.653 137.411 222.119 137.485 222.626 137.485C223.184 137.485 223.681 137.398 224.116 137.223C224.555 137.044 224.9 136.797 225.151 136.482C225.403 136.162 225.528 135.789 225.528 135.363C225.528 134.975 225.417 134.658 225.196 134.411C224.979 134.163 224.682 133.959 224.307 133.797C223.937 133.635 223.517 133.492 223.048 133.369L221.501 132.947C220.453 132.661 219.622 132.241 219.008 131.688C218.399 131.134 218.094 130.401 218.094 129.489C218.094 128.734 218.299 128.076 218.708 127.513C219.117 126.951 219.671 126.514 220.37 126.203C221.069 125.888 221.857 125.73 222.735 125.73C223.621 125.73 224.403 125.886 225.081 126.197C225.763 126.508 226.3 126.936 226.692 127.482C227.084 128.023 227.288 128.645 227.305 129.348H225.4ZM229.691 142.682V129.182H231.558V130.773H231.717C231.828 130.569 231.988 130.332 232.197 130.064C232.406 129.795 232.695 129.561 233.066 129.361C233.437 129.156 233.927 129.054 234.536 129.054C235.329 129.054 236.036 129.254 236.658 129.655C237.281 130.055 237.768 130.633 238.122 131.387C238.48 132.141 238.659 133.049 238.659 134.11C238.659 135.171 238.482 136.081 238.129 136.839C237.775 137.594 237.289 138.175 236.671 138.585C236.053 138.989 235.348 139.192 234.555 139.192C233.959 139.192 233.471 139.092 233.092 138.891C232.717 138.691 232.423 138.457 232.21 138.188C231.996 137.92 231.832 137.681 231.717 137.472H231.602V142.682H229.691ZM231.564 134.091C231.564 134.781 231.664 135.386 231.864 135.906C232.065 136.426 232.354 136.833 232.734 137.127C233.113 137.417 233.577 137.562 234.127 137.562C234.698 137.562 235.175 137.411 235.559 137.108C235.942 136.801 236.232 136.386 236.428 135.862C236.629 135.337 236.729 134.747 236.729 134.091C236.729 133.443 236.631 132.862 236.435 132.346C236.243 131.83 235.953 131.423 235.565 131.125C235.182 130.827 234.702 130.678 234.127 130.678C233.573 130.678 233.104 130.82 232.721 131.106C232.342 131.391 232.054 131.79 231.858 132.301C231.662 132.812 231.564 133.409 231.564 134.091ZM242.712 125.909V139H240.8V125.909H242.712ZM245.283 139V129.182H247.194V139H245.283ZM246.248 127.667C245.916 127.667 245.63 127.556 245.392 127.335C245.157 127.109 245.04 126.84 245.04 126.529C245.04 126.214 245.157 125.945 245.392 125.724C245.63 125.498 245.916 125.385 246.248 125.385C246.58 125.385 246.864 125.498 247.098 125.724C247.337 125.945 247.456 126.214 247.456 126.529C247.456 126.84 247.337 127.109 247.098 127.335C246.864 127.556 246.58 127.667 246.248 127.667ZM254.348 129.182V130.716H248.985V129.182H254.348ZM250.424 126.83H252.335V136.117C252.335 136.488 252.39 136.767 252.501 136.955C252.612 137.138 252.755 137.263 252.929 137.332C253.108 137.396 253.302 137.428 253.511 137.428C253.664 137.428 253.799 137.417 253.914 137.396C254.029 137.374 254.118 137.357 254.182 137.344L254.527 138.923C254.417 138.966 254.259 139.009 254.054 139.051C253.85 139.098 253.594 139.124 253.287 139.128C252.784 139.136 252.316 139.047 251.881 138.859C251.446 138.672 251.095 138.382 250.826 137.99C250.558 137.598 250.424 137.106 250.424 136.513V126.83Z" fill="#F4F4F5"/>
<rect x="160.5" y="105.5" width="151" height="53" rx="5.5" stroke="#71717A"/>
<path d="M152.361 132.694C152.752 132.304 152.751 131.671 152.361 131.28L145.996 124.917C145.606 124.526 144.973 124.526 144.582 124.917C144.192 125.308 144.192 125.941 144.582 126.331L150.24 131.987L144.583 137.645C144.193 138.035 144.193 138.669 144.583 139.059C144.974 139.45 145.607 139.45 145.998 139.059L152.361 132.694ZM25.9947 133C26.547 133 26.9946 132.552 26.9946 132C26.9945 131.447 26.5468 131 25.9945 131L25.9947 133ZM29.9837 130.999C29.4314 130.999 28.9837 131.447 28.9838 132C28.9838 132.552 29.4316 132.999 29.9839 132.999L29.9837 130.999ZM33.9731 132.999C34.5253 132.999 34.973 132.551 34.973 131.999C34.9729 131.447 34.5251 130.999 33.9729 130.999L33.9731 132.999ZM37.962 130.999C37.4098 130.999 36.9621 131.446 36.9621 131.999C36.9622 132.551 37.41 132.999 37.9622 132.999L37.962 130.999ZM41.9514 132.998C42.5037 132.998 42.9514 132.55 42.9513 131.998C42.9513 131.446 42.5035 130.998 41.9512 130.998L41.9514 132.998ZM45.9404 130.998C45.3881 130.998 44.9405 131.446 44.9405 131.998C44.9406 132.55 45.3883 132.998 45.9406 132.998L45.9404 130.998ZM49.9298 132.997C50.4821 132.997 50.9297 132.55 50.9297 131.997C50.9296 131.445 50.4819 130.997 49.9296 130.997L49.9298 132.997ZM53.9188 130.997C53.3665 130.997 52.9188 131.445 52.9189 131.997C52.9189 132.549 53.3667 132.997 53.919 132.997L53.9188 130.997ZM57.9082 132.997C58.4604 132.997 58.9081 132.549 58.9081 131.997C58.908 131.444 58.4602 130.997 57.908 130.997L57.9082 132.997ZM61.8971 130.996C61.3449 130.996 60.8972 131.444 60.8972 131.996C60.8973 132.549 61.3451 132.996 61.8973 132.996L61.8971 130.996ZM65.8865 132.996C66.4388 132.996 66.8865 132.548 66.8864 131.996C66.8864 131.443 66.4386 130.996 65.8863 130.996L65.8865 132.996ZM69.8755 130.995C69.3232 130.996 68.8755 131.443 68.8756 131.996C68.8757 132.548 69.3234 132.996 69.8757 132.995L69.8755 130.995ZM73.8649 132.995C74.4172 132.995 74.8648 132.547 74.8648 131.995C74.8647 131.443 74.417 130.995 73.8647 130.995L73.8649 132.995ZM77.8539 130.995C77.3016 130.995 76.8539 131.442 76.854 131.995C76.854 132.547 77.3018 132.995 77.8541 132.995L77.8539 130.995ZM81.8432 132.994C82.3955 132.994 82.8432 132.546 82.8431 131.994C82.8431 131.442 82.3953 130.994 81.843 130.994L81.8432 132.994ZM85.8322 130.994C85.2799 130.994 84.8323 131.442 84.8323 131.994C84.8324 132.546 85.2801 132.994 85.8324 132.994L85.8322 130.994ZM89.8216 132.993C90.3739 132.993 90.8216 132.546 90.8215 131.993C90.8215 131.441 90.3737 130.993 89.8214 130.993L89.8216 132.993ZM93.8106 130.993C93.2583 130.993 92.8106 131.441 92.8107 131.993C92.8107 132.545 93.2585 132.993 93.8108 132.993L93.8106 130.993ZM97.8 132.993C98.3523 132.993 98.7999 132.545 98.7999 131.993C98.7998 131.44 98.3521 130.993 97.7998 130.993L97.8 132.993ZM101.789 130.992C101.237 130.992 100.789 131.44 100.789 131.992C100.789 132.545 101.237 132.992 101.789 132.992L101.789 130.992ZM105.778 132.992C106.331 132.992 106.778 132.544 106.778 131.992C106.778 131.44 106.33 130.992 105.778 130.992L105.778 132.992ZM109.767 130.992C109.215 130.992 108.767 131.439 108.767 131.992C108.767 132.544 109.215 132.992 109.768 132.992L109.767 130.992ZM113.757 132.991C114.309 132.991 114.757 132.543 114.757 131.991C114.757 131.439 114.309 130.991 113.756 130.991L113.757 132.991ZM117.746 130.991C117.193 130.991 116.746 131.439 116.746 131.991C116.746 132.543 117.194 132.991 117.746 132.991L117.746 130.991ZM121.735 132.99C122.287 132.99 122.735 132.543 122.735 131.99C122.735 131.438 122.287 130.99 121.735 130.99L121.735 132.99ZM125.724 130.99C125.172 130.99 124.724 131.438 124.724 131.99C124.724 132.542 125.172 132.99 125.724 132.99L125.724 130.99ZM129.713 132.99C130.266 132.989 130.713 132.542 130.713 131.989C130.713 131.437 130.266 130.989 129.713 130.99L129.713 132.99ZM133.702 130.989C133.15 130.989 132.702 131.437 132.703 131.989C132.703 132.542 133.15 132.989 133.703 132.989L133.702 130.989ZM137.692 132.989C138.244 132.989 138.692 132.541 138.692 131.989C138.692 131.436 138.244 130.989 137.692 130.989L137.692 132.989ZM141.681 130.988C141.128 130.988 140.681 131.436 140.681 131.988C140.681 132.541 141.129 132.988 141.681 132.988L141.681 130.988ZM145.67 132.988C146.222 132.988 146.67 132.54 146.67 131.988C146.67 131.436 146.222 130.988 145.67 130.988L145.67 132.988ZM149.659 130.988C149.107 130.988 148.659 131.435 148.659 131.988C148.659 132.54 149.107 132.988 149.659 132.988L149.659 130.988ZM24.0001 133L25.9947 133L25.9945 131L23.9999 131L24.0001 133ZM29.9839 132.999L33.9731 132.999L33.9729 130.999L29.9837 130.999L29.9839 132.999ZM37.9622 132.999L41.9514 132.998L41.9512 130.998L37.962 130.999L37.9622 132.999ZM45.9406 132.998L49.9298 132.997L49.9296 130.997L45.9404 130.998L45.9406 132.998ZM53.919 132.997L57.9082 132.997L57.908 130.997L53.9188 130.997L53.919 132.997ZM61.8973 132.996L65.8865 132.996L65.8863 130.996L61.8971 130.996L61.8973 132.996ZM69.8757 132.995L73.8649 132.995L73.8647 130.995L69.8755 130.995L69.8757 132.995ZM77.8541 132.995L81.8432 132.994L81.843 130.994L77.8539 130.995L77.8541 132.995ZM85.8324 132.994L89.8216 132.993L89.8214 130.993L85.8322 130.994L85.8324 132.994ZM93.8108 132.993L97.8 132.993L97.7998 130.993L93.8106 130.993L93.8108 132.993ZM101.789 132.992L105.778 132.992L105.778 130.992L101.789 130.992L101.789 132.992ZM109.768 132.992L113.757 132.991L113.756 130.991L109.767 130.992L109.768 132.992ZM117.746 132.991L121.735 132.99L121.735 130.99L117.746 130.991L117.746 132.991ZM125.724 132.99L129.713 132.99L129.713 130.99L125.724 130.99L125.724 132.99ZM133.703 132.989L137.692 132.989L137.692 130.989L133.702 130.989L133.703 132.989ZM141.681 132.988L145.67 132.988L145.67 130.988L141.681 130.988L141.681 132.988ZM149.659 132.988L151.654 132.987L151.654 130.987L149.659 130.988L149.659 132.988Z" fill="#71717A"/>
<path d="M320 131C319.448 131 319 131.448 319 132C319 132.552 319.448 133 320 133L320 131ZM448.361 132.694C448.752 132.304 448.751 131.671 448.361 131.28L441.996 124.917C441.606 124.526 440.973 124.526 440.582 124.917C440.192 125.308 440.192 125.941 440.582 126.331L446.24 131.987L440.583 137.645C440.193 138.035 440.193 138.669 440.583 139.059C440.974 139.45 441.607 139.45 441.998 139.059L448.361 132.694ZM320 133L447.654 132.987L447.654 130.987L320 131L320 133Z" fill="#A1A1AA"/>
<path d="M320 131C319.448 131 319 131.448 319 132C319 132.552 319.448 133 320 133V131ZM447.728 52.7071C448.119 52.3166 448.119 51.6834 447.728 51.2929L441.364 44.9289C440.974 44.5384 440.341 44.5384 439.95 44.9289C439.56 45.3195 439.56 45.9526 439.95 46.3431L445.607 52L439.95 57.6569C439.56 58.0474 439.56 58.6805 439.95 59.0711C440.341 59.4616 440.974 59.4616 441.364 59.0711L447.728 52.7071ZM320 133H368.011V131H320V133ZM385.011 116V68H383.011V116H385.011ZM400.011 53H447.021V51H400.011V53ZM385.011 68C385.011 59.7157 391.726 53 400.011 53V51C390.622 51 383.011 58.6112 383.011 68H385.011ZM368.011 133C377.399 133 385.011 125.389 385.011 116H383.011C383.011 124.284 376.295 131 368.011 131V133Z" fill="#A1A1AA"/>
<path d="M320 131.5C319.448 131.5 319 131.948 319 132.5C319 133.052 319.448 133.5 320 133.5V131.5ZM447.728 213.207C448.119 212.817 448.119 212.183 447.728 211.793L441.364 205.429C440.974 205.038 440.341 205.038 439.95 205.429C439.56 205.819 439.56 206.453 439.95 206.843L445.607 212.5L439.95 218.157C439.56 218.547 439.56 219.181 439.95 219.571C440.341 219.962 440.974 219.962 441.364 219.571L447.728 213.207ZM320 133.5H368.011V131.5H320V133.5ZM383.011 148.5V196.5H385.011V148.5H383.011ZM400.011 213.5H447.021V211.5H400.011V213.5ZM383.011 196.5C383.011 205.889 390.622 213.5 400.011 213.5V211.5C391.726 211.5 385.011 204.784 385.011 196.5H383.011ZM368.011 133.5C376.295 133.5 383.011 140.216 383.011 148.5H385.011C385.011 139.111 377.399 131.5 368.011 131.5V133.5Z" fill="#A1A1AA"/>
<path d="M616 211C615.448 211 615 211.448 615 212C615 212.552 615.448 213 616 213V211ZM743.728 172.707C744.119 172.317 744.119 171.683 743.728 171.293L737.364 164.929C736.974 164.538 736.341 164.538 735.95 164.929C735.56 165.319 735.56 165.953 735.95 166.343L741.607 172L735.95 177.657C735.56 178.047 735.56 178.681 735.95 179.071C736.341 179.462 736.974 179.462 737.364 179.071L743.728 172.707ZM616 213H664.011V211H616V213ZM681.011 196V188H679.011V196H681.011ZM696.011 173H743.021V171H696.011V173ZM681.011 188C681.011 179.716 687.726 173 696.011 173V171C686.622 171 679.011 178.611 679.011 188H681.011ZM664.011 213C673.399 213 681.011 205.389 681.011 196H679.011C679.011 204.284 672.295 211 664.011 211V213Z" fill="#A1A1AA"/>
<path d="M616 211C615.448 211 615 211.448 615 212C615 212.552 615.448 213 616 213V211ZM743.728 252.707C744.119 252.317 744.119 251.683 743.728 251.293L737.364 244.929C736.974 244.538 736.341 244.538 735.95 244.929C735.56 245.319 735.56 245.953 735.95 246.343L741.607 252L735.95 257.657C735.56 258.047 735.56 258.681 735.95 259.071C736.341 259.462 736.974 259.462 737.364 259.071L743.728 252.707ZM616 213H664.011V211H616V213ZM679.011 228V236H681.011V228H679.011ZM696.011 253H743.021V251H696.011V253ZM679.011 236C679.011 245.389 686.622 253 696.011 253V251C687.726 251 681.011 244.284 681.011 236H679.011ZM664.011 213C672.295 213 679.011 219.716 679.011 228H681.011C681.011 218.611 673.399 211 664.011 211V213Z" fill="#A1A1AA"/>
</svg>
