<svg width="932" height="303" viewBox="0 0 932 303" fill="none" xmlns="http://www.w3.org/2000/svg">
<rect x="455.654" y="24" width="152" height="54" rx="8" fill="#BFDBFE"/>
<path d="M499.102 58.2173C498.479 58.2173 497.917 58.1023 497.414 57.8722C496.911 57.6378 496.513 57.299 496.219 56.8558C495.929 56.4126 495.784 55.8693 495.784 55.2259C495.784 54.6719 495.891 54.2159 496.104 53.858C496.317 53.5 496.604 53.2166 496.967 53.0078C497.329 52.799 497.734 52.6413 498.181 52.5348C498.629 52.4283 499.084 52.3473 499.549 52.2919C500.137 52.2237 500.614 52.1683 500.981 52.1257C501.347 52.0788 501.614 52.0043 501.78 51.902C501.946 51.7997 502.029 51.6335 502.029 51.4034V51.3587C502.029 50.8004 501.871 50.3679 501.556 50.0611C501.245 49.7543 500.78 49.6009 500.163 49.6009C499.519 49.6009 499.012 49.7436 498.641 50.0291C498.275 50.3104 498.021 50.6236 497.881 50.9688L496.084 50.5597C496.298 49.9631 496.609 49.4815 497.018 49.1151C497.431 48.7443 497.906 48.4759 498.443 48.3097C498.98 48.1392 499.545 48.054 500.137 48.054C500.529 48.054 500.945 48.1009 501.383 48.1946C501.827 48.2841 502.24 48.4503 502.624 48.6932C503.011 48.9361 503.329 49.2834 503.576 49.7351C503.823 50.1825 503.947 50.7642 503.947 51.4801V58H502.08V56.6577H502.004C501.88 56.9048 501.695 57.1477 501.447 57.3864C501.2 57.625 500.883 57.8232 500.495 57.9808C500.107 58.1385 499.643 58.2173 499.102 58.2173ZM499.517 56.6832C500.045 56.6832 500.497 56.5788 500.872 56.37C501.251 56.1612 501.539 55.8885 501.735 55.5518C501.935 55.2109 502.035 54.8466 502.035 54.4588V53.1932C501.967 53.2614 501.835 53.3253 501.639 53.3849C501.447 53.4403 501.228 53.4893 500.981 53.532C500.734 53.5703 500.493 53.6065 500.258 53.6406C500.024 53.6705 499.828 53.696 499.67 53.7173C499.3 53.7642 498.961 53.843 498.654 53.9538C498.352 54.0646 498.109 54.2244 497.925 54.4332C497.746 54.6378 497.657 54.9105 497.657 55.2514C497.657 55.7244 497.832 56.0824 498.181 56.3253C498.53 56.5639 498.976 56.6832 499.517 56.6832ZM508.404 44.9091V58H506.492V44.9091H508.404ZM510.975 58V48.1818H512.886V58H510.975ZM511.94 46.6669C511.608 46.6669 511.322 46.5561 511.083 46.3345C510.849 46.1087 510.732 45.8402 510.732 45.5291C510.732 45.2138 510.849 44.9453 511.083 44.7237C511.322 44.4979 511.608 44.3849 511.94 44.3849C512.272 44.3849 512.556 44.4979 512.79 44.7237C513.029 44.9453 513.148 45.2138 513.148 45.5291C513.148 45.8402 513.029 46.1087 512.79 46.3345C512.556 46.5561 512.272 46.6669 511.94 46.6669ZM519.593 58.1982C518.643 58.1982 517.824 57.983 517.138 57.5526C516.456 57.1179 515.932 56.5192 515.566 55.7564C515.199 54.9936 515.016 54.12 515.016 53.1357C515.016 52.1385 515.204 51.2585 515.579 50.4957C515.954 49.7287 516.482 49.13 517.164 48.6996C517.846 48.2692 518.649 48.054 519.574 48.054C520.319 48.054 520.984 48.1925 521.568 48.4695C522.152 48.7422 522.623 49.1257 522.981 49.62C523.343 50.1143 523.558 50.6918 523.626 51.3523H521.766C521.664 50.892 521.429 50.4957 521.063 50.1634C520.701 49.831 520.215 49.6648 519.606 49.6648C519.073 49.6648 518.606 49.8054 518.206 50.0866C517.809 50.3636 517.5 50.7599 517.279 51.2756C517.057 51.7869 516.947 52.392 516.947 53.0909C516.947 53.8068 517.055 54.4247 517.273 54.9446C517.49 55.4645 517.797 55.8672 518.193 56.1527C518.594 56.4382 519.064 56.581 519.606 56.581C519.968 56.581 520.296 56.5149 520.59 56.3828C520.888 56.2464 521.138 56.0526 521.338 55.8011C521.542 55.5497 521.685 55.2472 521.766 54.8935H523.626C523.558 55.5284 523.351 56.0952 523.006 56.5938C522.661 57.0923 522.199 57.4844 521.619 57.7699C521.044 58.0554 520.368 58.1982 519.593 58.1982ZM529.902 58.1982C528.934 58.1982 528.101 57.9915 527.402 57.5781C526.708 57.1605 526.171 56.5746 525.792 55.8203C525.417 55.0618 525.229 54.1733 525.229 53.1548C525.229 52.1491 525.417 51.2628 525.792 50.4957C526.171 49.7287 526.699 49.13 527.377 48.6996C528.059 48.2692 528.855 48.054 529.767 48.054C530.321 48.054 530.858 48.1456 531.378 48.3288C531.898 48.5121 532.365 48.7997 532.778 49.1918C533.191 49.5838 533.517 50.093 533.756 50.7195C533.995 51.3416 534.114 52.098 534.114 52.9886V53.6662H526.309V52.2344H532.241C532.241 51.7315 532.139 51.2862 531.934 50.8984C531.73 50.5064 531.442 50.1974 531.071 49.9716C530.705 49.7457 530.274 49.6328 529.78 49.6328C529.243 49.6328 528.774 49.7649 528.374 50.0291C527.978 50.2891 527.671 50.63 527.453 51.0518C527.24 51.4695 527.134 51.9233 527.134 52.4134V53.532C527.134 54.1882 527.249 54.7464 527.479 55.2067C527.713 55.6669 528.039 56.0185 528.457 56.2614C528.875 56.5 529.363 56.6193 529.921 56.6193C530.283 56.6193 530.613 56.5682 530.912 56.4659C531.21 56.3594 531.468 56.2017 531.685 55.9929C531.902 55.7841 532.068 55.5263 532.184 55.2195L533.992 55.5455C533.848 56.0781 533.588 56.5447 533.213 56.9453C532.842 57.3416 532.375 57.6506 531.813 57.8722C531.255 58.0895 530.617 58.1982 529.902 58.1982ZM537.494 58.1214C537.144 58.1214 536.844 57.9979 536.592 57.7507C536.341 57.4993 536.215 57.1967 536.215 56.843C536.215 56.4936 536.341 56.1953 536.592 55.9482C536.844 55.6967 537.144 55.571 537.494 55.571C537.843 55.571 538.144 55.6967 538.395 55.9482C538.646 56.1953 538.772 56.4936 538.772 56.843C538.772 57.0774 538.712 57.2926 538.593 57.4886C538.478 57.6804 538.325 57.8338 538.133 57.9489C537.941 58.0639 537.728 58.1214 537.494 58.1214ZM545.564 58.1982C544.596 58.1982 543.763 57.9915 543.064 57.5781C542.37 57.1605 541.833 56.5746 541.454 55.8203C541.079 55.0618 540.891 54.1733 540.891 53.1548C540.891 52.1491 541.079 51.2628 541.454 50.4957C541.833 49.7287 542.361 49.13 543.039 48.6996C543.721 48.2692 544.518 48.054 545.429 48.054C545.983 48.054 546.52 48.1456 547.04 48.3288C547.56 48.5121 548.027 48.7997 548.44 49.1918C548.853 49.5838 549.179 50.093 549.418 50.7195C549.657 51.3416 549.776 52.098 549.776 52.9886V53.6662H541.971V52.2344H547.903C547.903 51.7315 547.801 51.2862 547.596 50.8984C547.392 50.5064 547.104 50.1974 546.733 49.9716C546.367 49.7457 545.937 49.6328 545.442 49.6328C544.905 49.6328 544.437 49.7649 544.036 50.0291C543.64 50.2891 543.333 50.63 543.116 51.0518C542.902 51.4695 542.796 51.9233 542.796 52.4134V53.532C542.796 54.1882 542.911 54.7464 543.141 55.2067C543.375 55.6669 543.701 56.0185 544.119 56.2614C544.537 56.5 545.025 56.6193 545.583 56.6193C545.945 56.6193 546.275 56.5682 546.574 56.4659C546.872 56.3594 547.13 56.2017 547.347 55.9929C547.564 55.7841 547.731 55.5263 547.846 55.2195L549.655 55.5455C549.51 56.0781 549.25 56.5447 548.875 56.9453C548.504 57.3416 548.037 57.6506 547.475 57.8722C546.917 58.0895 546.28 58.1982 545.564 58.1982ZM556.48 48.1818V49.7159H551.117V48.1818H556.48ZM552.555 45.8295H554.466V55.1172C554.466 55.4879 554.522 55.767 554.632 55.9545C554.743 56.1378 554.886 56.2635 555.061 56.3317C555.24 56.3956 555.434 56.4276 555.642 56.4276C555.796 56.4276 555.93 56.4169 556.045 56.3956C556.16 56.3743 556.25 56.3572 556.314 56.3445L556.659 57.9233C556.548 57.9659 556.39 58.0085 556.186 58.0511C555.981 58.098 555.725 58.1236 555.419 58.1278C554.916 58.1364 554.447 58.0469 554.012 57.8594C553.578 57.6719 553.226 57.3821 552.958 56.9901C552.689 56.598 552.555 56.1058 552.555 55.5135V45.8295ZM560.716 52.1705V58H558.805V44.9091H560.69V49.7798H560.812C561.042 49.2514 561.394 48.8317 561.867 48.5206C562.34 48.2095 562.958 48.054 563.72 48.054C564.394 48.054 564.982 48.1925 565.485 48.4695C565.992 48.7464 566.384 49.1598 566.661 49.7095C566.942 50.255 567.083 50.9368 567.083 51.755V58H565.171V51.9851C565.171 51.2649 564.986 50.7067 564.615 50.3104C564.244 49.9098 563.729 49.7095 563.068 49.7095C562.617 49.7095 562.212 49.8054 561.854 49.9972C561.5 50.1889 561.221 50.4702 561.016 50.8409C560.816 51.2074 560.716 51.6506 560.716 52.1705Z" fill="#2563EB"/>
<rect x="455.654" y="104.5" width="152" height="54" rx="8" fill="#BFDBFE"/>
<path d="M499.702 138.5V125.409H501.614V130.273H501.729C501.839 130.069 501.999 129.832 502.208 129.564C502.417 129.295 502.707 129.061 503.077 128.861C503.448 128.656 503.938 128.554 504.548 128.554C505.34 128.554 506.048 128.754 506.67 129.155C507.292 129.555 507.78 130.133 508.133 130.887C508.491 131.641 508.67 132.549 508.67 133.61C508.67 134.671 508.494 135.581 508.14 136.339C507.786 137.094 507.3 137.675 506.682 138.085C506.065 138.489 505.359 138.692 504.567 138.692C503.97 138.692 503.482 138.592 503.103 138.391C502.728 138.191 502.434 137.957 502.221 137.688C502.008 137.42 501.844 137.181 501.729 136.972H501.569V138.5H499.702ZM501.575 133.591C501.575 134.281 501.675 134.886 501.876 135.406C502.076 135.926 502.366 136.333 502.745 136.627C503.124 136.917 503.589 137.062 504.138 137.062C504.709 137.062 505.187 136.911 505.57 136.608C505.954 136.301 506.244 135.886 506.44 135.362C506.64 134.837 506.74 134.247 506.74 133.591C506.74 132.943 506.642 132.362 506.446 131.846C506.254 131.33 505.964 130.923 505.577 130.625C505.193 130.327 504.714 130.178 504.138 130.178C503.584 130.178 503.116 130.32 502.732 130.606C502.353 130.891 502.065 131.29 501.869 131.801C501.673 132.312 501.575 132.909 501.575 133.591ZM514.952 138.698C514.032 138.698 513.228 138.487 512.542 138.065C511.856 137.643 511.324 137.053 510.944 136.295C510.565 135.536 510.375 134.65 510.375 133.636C510.375 132.617 510.565 131.727 510.944 130.964C511.324 130.201 511.856 129.609 512.542 129.187C513.228 128.765 514.032 128.554 514.952 128.554C515.873 128.554 516.676 128.765 517.362 129.187C518.048 129.609 518.581 130.201 518.96 130.964C519.339 131.727 519.529 132.617 519.529 133.636C519.529 134.65 519.339 135.536 518.96 136.295C518.581 137.053 518.048 137.643 517.362 138.065C516.676 138.487 515.873 138.698 514.952 138.698ZM514.959 137.094C515.555 137.094 516.049 136.936 516.442 136.621C516.834 136.305 517.123 135.886 517.311 135.362C517.503 134.837 517.599 134.26 517.599 133.629C517.599 133.003 517.503 132.428 517.311 131.903C517.123 131.375 516.834 130.951 516.442 130.631C516.049 130.312 515.555 130.152 514.959 130.152C514.358 130.152 513.859 130.312 513.463 130.631C513.071 130.951 512.779 131.375 512.587 131.903C512.4 132.428 512.306 133.003 512.306 133.629C512.306 134.26 512.4 134.837 512.587 135.362C512.779 135.886 513.071 136.305 513.463 136.621C513.859 136.936 514.358 137.094 514.959 137.094ZM521.816 138.5V125.409H523.727V130.273H523.842C523.953 130.069 524.113 129.832 524.321 129.564C524.53 129.295 524.82 129.061 525.191 128.861C525.561 128.656 526.051 128.554 526.661 128.554C527.453 128.554 528.161 128.754 528.783 129.155C529.405 129.555 529.893 130.133 530.247 130.887C530.605 131.641 530.784 132.549 530.784 133.61C530.784 134.671 530.607 135.581 530.253 136.339C529.899 137.094 529.414 137.675 528.796 138.085C528.178 138.489 527.473 138.692 526.68 138.692C526.083 138.692 525.595 138.592 525.216 138.391C524.841 138.191 524.547 137.957 524.334 137.688C524.121 137.42 523.957 137.181 523.842 136.972H523.682V138.5H521.816ZM523.689 133.591C523.689 134.281 523.789 134.886 523.989 135.406C524.189 135.926 524.479 136.333 524.858 136.627C525.238 136.917 525.702 137.062 526.252 137.062C526.823 137.062 527.3 136.911 527.684 136.608C528.067 136.301 528.357 135.886 528.553 135.362C528.753 134.837 528.853 134.247 528.853 133.591C528.853 132.943 528.755 132.362 528.559 131.846C528.367 131.33 528.078 130.923 527.69 130.625C527.306 130.327 526.827 130.178 526.252 130.178C525.698 130.178 525.229 130.32 524.845 130.606C524.466 130.891 524.179 131.29 523.983 131.801C523.787 132.312 523.689 132.909 523.689 133.591ZM534.189 138.621C533.84 138.621 533.539 138.498 533.288 138.251C533.036 137.999 532.911 137.697 532.911 137.343C532.911 136.994 533.036 136.695 533.288 136.448C533.539 136.197 533.84 136.071 534.189 136.071C534.538 136.071 534.839 136.197 535.09 136.448C535.342 136.695 535.467 136.994 535.467 137.343C535.467 137.577 535.408 137.793 535.288 137.989C535.173 138.18 535.02 138.334 534.828 138.449C534.636 138.564 534.423 138.621 534.189 138.621ZM542.259 138.698C541.292 138.698 540.459 138.491 539.76 138.078C539.065 137.661 538.528 137.075 538.149 136.32C537.774 135.562 537.586 134.673 537.586 133.655C537.586 132.649 537.774 131.763 538.149 130.996C538.528 130.229 539.057 129.63 539.734 129.2C540.416 128.769 541.213 128.554 542.125 128.554C542.679 128.554 543.216 128.646 543.736 128.829C544.255 129.012 544.722 129.3 545.135 129.692C545.549 130.084 545.875 130.593 546.113 131.219C546.352 131.842 546.471 132.598 546.471 133.489V134.166H538.667V132.734H544.599C544.599 132.232 544.496 131.786 544.292 131.398C544.087 131.006 543.799 130.697 543.429 130.472C543.062 130.246 542.632 130.133 542.138 130.133C541.601 130.133 541.132 130.265 540.731 130.529C540.335 130.789 540.028 131.13 539.811 131.552C539.598 131.969 539.491 132.423 539.491 132.913V134.032C539.491 134.688 539.606 135.246 539.836 135.707C540.071 136.167 540.397 136.518 540.814 136.761C541.232 137 541.72 137.119 542.278 137.119C542.64 137.119 542.971 137.068 543.269 136.966C543.567 136.859 543.825 136.702 544.042 136.493C544.26 136.284 544.426 136.026 544.541 135.719L546.35 136.045C546.205 136.578 545.945 137.045 545.57 137.445C545.199 137.842 544.733 138.151 544.17 138.372C543.612 138.589 542.975 138.698 542.259 138.698ZM553.175 128.682V130.216H547.812V128.682H553.175ZM549.25 126.33H551.162V135.617C551.162 135.988 551.217 136.267 551.328 136.455C551.439 136.638 551.581 136.763 551.756 136.832C551.935 136.896 552.129 136.928 552.338 136.928C552.491 136.928 552.625 136.917 552.74 136.896C552.855 136.874 552.945 136.857 553.009 136.844L553.354 138.423C553.243 138.466 553.086 138.509 552.881 138.551C552.676 138.598 552.421 138.624 552.114 138.628C551.611 138.636 551.142 138.547 550.708 138.359C550.273 138.172 549.921 137.882 549.653 137.49C549.385 137.098 549.25 136.606 549.25 136.013V126.33ZM557.411 132.67V138.5H555.5V125.409H557.386V130.28H557.507C557.737 129.751 558.089 129.332 558.562 129.021C559.035 128.71 559.653 128.554 560.416 128.554C561.089 128.554 561.677 128.692 562.18 128.969C562.687 129.246 563.079 129.66 563.356 130.21C563.637 130.755 563.778 131.437 563.778 132.255V138.5H561.867V132.485C561.867 131.765 561.681 131.207 561.311 130.81C560.94 130.41 560.424 130.21 559.764 130.21C559.312 130.21 558.907 130.305 558.549 130.497C558.195 130.689 557.916 130.97 557.712 131.341C557.511 131.707 557.411 132.151 557.411 132.67Z" fill="#2563EB"/>
<rect x="750.367" y="145" width="157" height="54" rx="8" fill="#BFDBFE"/>
<path d="M771.762 182.682C771.476 182.682 771.216 182.658 770.982 182.612C770.747 182.569 770.573 182.522 770.458 182.471L770.918 180.905C771.267 180.999 771.578 181.039 771.851 181.026C772.124 181.013 772.365 180.911 772.573 180.719C772.787 180.528 772.974 180.214 773.136 179.78L773.372 179.128L769.78 169.182H771.826L774.312 176.801H774.414L776.901 169.182H778.953L774.907 180.31C774.719 180.822 774.48 181.254 774.191 181.608C773.901 181.966 773.556 182.234 773.155 182.413C772.755 182.592 772.29 182.682 771.762 182.682ZM784.551 179.198C783.63 179.198 782.827 178.987 782.141 178.565C781.455 178.143 780.922 177.553 780.543 176.795C780.164 176.036 779.974 175.15 779.974 174.136C779.974 173.117 780.164 172.227 780.543 171.464C780.922 170.701 781.455 170.109 782.141 169.687C782.827 169.265 783.63 169.054 784.551 169.054C785.471 169.054 786.274 169.265 786.96 169.687C787.646 170.109 788.179 170.701 788.558 171.464C788.938 172.227 789.127 173.117 789.127 174.136C789.127 175.15 788.938 176.036 788.558 176.795C788.179 177.553 787.646 178.143 786.96 178.565C786.274 178.987 785.471 179.198 784.551 179.198ZM784.557 177.594C785.154 177.594 785.648 177.436 786.04 177.121C786.432 176.805 786.722 176.386 786.909 175.862C787.101 175.337 787.197 174.76 787.197 174.129C787.197 173.503 787.101 172.928 786.909 172.403C786.722 171.875 786.432 171.451 786.04 171.131C785.648 170.812 785.154 170.652 784.557 170.652C783.956 170.652 783.458 170.812 783.061 171.131C782.669 171.451 782.377 171.875 782.186 172.403C781.998 172.928 781.904 173.503 781.904 174.129C781.904 174.76 781.998 175.337 782.186 175.862C782.377 176.386 782.669 176.805 783.061 177.121C783.458 177.436 783.956 177.594 784.557 177.594ZM797.48 174.928V169.182H799.398V179H797.518V177.3H797.416C797.19 177.824 796.828 178.261 796.33 178.61C795.835 178.955 795.219 179.128 794.482 179.128C793.852 179.128 793.293 178.989 792.808 178.712C792.326 178.431 791.947 178.016 791.67 177.466C791.397 176.916 791.261 176.237 791.261 175.427V169.182H793.172V175.197C793.172 175.866 793.357 176.398 793.728 176.795C794.099 177.191 794.58 177.389 795.173 177.389C795.531 177.389 795.886 177.3 796.24 177.121C796.598 176.942 796.894 176.671 797.129 176.309C797.367 175.947 797.484 175.487 797.48 174.928ZM801.966 179V169.182H803.813V170.741H803.915C804.094 170.213 804.41 169.798 804.861 169.495C805.317 169.188 805.833 169.035 806.408 169.035C806.527 169.035 806.668 169.039 806.83 169.048C806.996 169.056 807.126 169.067 807.22 169.08V170.908C807.143 170.886 807.007 170.863 806.811 170.837C806.615 170.808 806.419 170.793 806.223 170.793C805.771 170.793 805.368 170.888 805.015 171.08C804.665 171.268 804.388 171.53 804.184 171.866C803.979 172.199 803.877 172.578 803.877 173.004V179H801.966ZM810.785 173.17V179H808.874V169.182H810.708V170.78H810.83C811.056 170.26 811.409 169.842 811.891 169.527C812.377 169.212 812.988 169.054 813.725 169.054C814.395 169.054 814.98 169.195 815.483 169.476C815.986 169.753 816.376 170.166 816.653 170.716C816.93 171.266 817.069 171.945 817.069 172.755V179H815.157V172.985C815.157 172.273 814.972 171.717 814.601 171.317C814.23 170.912 813.721 170.71 813.073 170.71C812.63 170.71 812.236 170.805 811.891 170.997C811.55 171.189 811.279 171.47 811.079 171.841C810.883 172.207 810.785 172.651 810.785 173.17ZM822.489 179.217C821.867 179.217 821.304 179.102 820.801 178.872C820.299 178.638 819.9 178.299 819.606 177.856C819.316 177.413 819.171 176.869 819.171 176.226C819.171 175.672 819.278 175.216 819.491 174.858C819.704 174.5 819.992 174.217 820.354 174.008C820.716 173.799 821.121 173.641 821.569 173.535C822.016 173.428 822.472 173.347 822.936 173.292C823.524 173.224 824.002 173.168 824.368 173.126C824.735 173.079 825.001 173.004 825.167 172.902C825.333 172.8 825.417 172.634 825.417 172.403V172.359C825.417 171.8 825.259 171.368 824.944 171.061C824.632 170.754 824.168 170.601 823.55 170.601C822.907 170.601 822.399 170.744 822.029 171.029C821.662 171.31 821.409 171.624 821.268 171.969L819.472 171.56C819.685 170.963 819.996 170.482 820.405 170.115C820.819 169.744 821.294 169.476 821.831 169.31C822.368 169.139 822.932 169.054 823.524 169.054C823.917 169.054 824.332 169.101 824.771 169.195C825.214 169.284 825.627 169.45 826.011 169.693C826.399 169.936 826.716 170.283 826.963 170.735C827.211 171.183 827.334 171.764 827.334 172.48V179H825.468V177.658H825.391C825.267 177.905 825.082 178.148 824.835 178.386C824.588 178.625 824.27 178.823 823.882 178.981C823.495 179.138 823.03 179.217 822.489 179.217ZM822.904 177.683C823.433 177.683 823.885 177.579 824.26 177.37C824.639 177.161 824.926 176.888 825.122 176.552C825.323 176.211 825.423 175.847 825.423 175.459V174.193C825.355 174.261 825.223 174.325 825.027 174.385C824.835 174.44 824.615 174.489 824.368 174.532C824.121 174.57 823.88 174.607 823.646 174.641C823.412 174.67 823.216 174.696 823.058 174.717C822.687 174.764 822.348 174.843 822.042 174.954C821.739 175.065 821.496 175.224 821.313 175.433C821.134 175.638 821.044 175.911 821.044 176.251C821.044 176.724 821.219 177.082 821.569 177.325C821.918 177.564 822.363 177.683 822.904 177.683ZM829.88 179V169.182H831.714V170.78H831.836C832.04 170.239 832.375 169.817 832.839 169.514C833.304 169.207 833.86 169.054 834.508 169.054C835.164 169.054 835.714 169.207 836.157 169.514C836.604 169.821 836.934 170.243 837.148 170.78H837.25C837.484 170.256 837.857 169.838 838.368 169.527C838.88 169.212 839.489 169.054 840.197 169.054C841.087 169.054 841.814 169.333 842.376 169.891C842.943 170.45 843.226 171.291 843.226 172.416V179H841.315V172.595C841.315 171.93 841.134 171.449 840.772 171.151C840.41 170.852 839.977 170.703 839.474 170.703C838.852 170.703 838.368 170.895 838.023 171.278C837.678 171.658 837.505 172.146 837.505 172.742V179H835.601V172.474C835.601 171.941 835.434 171.513 835.102 171.189C834.77 170.865 834.337 170.703 833.804 170.703C833.442 170.703 833.108 170.799 832.801 170.991C832.498 171.178 832.253 171.44 832.066 171.777C831.883 172.114 831.791 172.504 831.791 172.947V179H829.88ZM850.02 179.198C849.052 179.198 848.219 178.991 847.52 178.578C846.826 178.161 846.289 177.575 845.909 176.82C845.534 176.062 845.347 175.173 845.347 174.155C845.347 173.149 845.534 172.263 845.909 171.496C846.289 170.729 846.817 170.13 847.495 169.7C848.176 169.269 848.973 169.054 849.885 169.054C850.439 169.054 850.976 169.146 851.496 169.329C852.016 169.512 852.483 169.8 852.896 170.192C853.309 170.584 853.635 171.093 853.874 171.719C854.113 172.342 854.232 173.098 854.232 173.989V174.666H846.427V173.234H852.359C852.359 172.732 852.257 172.286 852.052 171.898C851.848 171.506 851.56 171.197 851.189 170.972C850.823 170.746 850.392 170.633 849.898 170.633C849.361 170.633 848.892 170.765 848.492 171.029C848.096 171.289 847.789 171.63 847.571 172.052C847.358 172.469 847.252 172.923 847.252 173.413V174.532C847.252 175.188 847.367 175.746 847.597 176.207C847.831 176.667 848.157 177.018 848.575 177.261C848.993 177.5 849.48 177.619 850.039 177.619C850.401 177.619 850.731 177.568 851.029 177.466C851.328 177.359 851.586 177.202 851.803 176.993C852.02 176.784 852.186 176.526 852.301 176.219L854.11 176.545C853.966 177.078 853.706 177.545 853.331 177.945C852.96 178.342 852.493 178.651 851.931 178.872C851.372 179.089 850.735 179.198 850.02 179.198ZM857.612 179.121C857.262 179.121 856.962 178.998 856.71 178.751C856.459 178.499 856.333 178.197 856.333 177.843C856.333 177.494 856.459 177.195 856.71 176.948C856.962 176.697 857.262 176.571 857.612 176.571C857.961 176.571 858.262 176.697 858.513 176.948C858.764 177.195 858.89 177.494 858.89 177.843C858.89 178.077 858.83 178.293 858.711 178.489C858.596 178.68 858.443 178.834 858.251 178.949C858.059 179.064 857.846 179.121 857.612 179.121ZM865.682 179.198C864.714 179.198 863.881 178.991 863.182 178.578C862.488 178.161 861.951 177.575 861.572 176.82C861.197 176.062 861.009 175.173 861.009 174.155C861.009 173.149 861.197 172.263 861.572 171.496C861.951 170.729 862.479 170.13 863.157 169.7C863.839 169.269 864.635 169.054 865.547 169.054C866.101 169.054 866.638 169.146 867.158 169.329C867.678 169.512 868.145 169.8 868.558 170.192C868.971 170.584 869.297 171.093 869.536 171.719C869.775 172.342 869.894 173.098 869.894 173.989V174.666H862.089V173.234H868.021C868.021 172.732 867.919 172.286 867.714 171.898C867.51 171.506 867.222 171.197 866.851 170.972C866.485 170.746 866.054 170.633 865.56 170.633C865.023 170.633 864.554 170.765 864.154 171.029C863.758 171.289 863.451 171.63 863.233 172.052C863.02 172.469 862.914 172.923 862.914 173.413V174.532C862.914 175.188 863.029 175.746 863.259 176.207C863.493 176.667 863.819 177.018 864.237 177.261C864.655 177.5 865.143 177.619 865.701 177.619C866.063 177.619 866.393 177.568 866.692 177.466C866.99 177.359 867.248 177.202 867.465 176.993C867.682 176.784 867.849 176.526 867.964 176.219L869.773 176.545C869.628 177.078 869.368 177.545 868.993 177.945C868.622 178.342 868.155 178.651 867.593 178.872C867.035 179.089 866.398 179.198 865.682 179.198ZM876.598 169.182V170.716H871.235V169.182H876.598ZM872.673 166.83H874.584V176.117C874.584 176.488 874.64 176.767 874.75 176.955C874.861 177.138 875.004 177.263 875.179 177.332C875.358 177.396 875.551 177.428 875.76 177.428C875.914 177.428 876.048 177.417 876.163 177.396C876.278 177.374 876.368 177.357 876.431 177.344L876.777 178.923C876.666 178.966 876.508 179.009 876.304 179.051C876.099 179.098 875.843 179.124 875.537 179.128C875.034 179.136 874.565 179.047 874.13 178.859C873.696 178.672 873.344 178.382 873.076 177.99C872.807 177.598 872.673 177.106 872.673 176.513V166.83ZM880.834 173.17V179H878.923V165.909H880.808V170.78H880.93C881.16 170.251 881.512 169.832 881.985 169.521C882.458 169.21 883.075 169.054 883.838 169.054C884.512 169.054 885.1 169.192 885.602 169.469C886.11 169.746 886.502 170.16 886.779 170.71C887.06 171.255 887.2 171.937 887.2 172.755V179H885.289V172.985C885.289 172.265 885.104 171.707 884.733 171.31C884.362 170.91 883.847 170.71 883.186 170.71C882.735 170.71 882.33 170.805 881.972 170.997C881.618 171.189 881.339 171.47 881.134 171.841C880.934 172.207 880.834 172.651 880.834 173.17Z" fill="#2563EB"/>
<rect x="750.367" y="225" width="157" height="54" rx="8" fill="#BFDBFE"/>
<path d="M768.237 259V245.909H776.445V247.609H770.212V251.598H776.016V253.292H770.212V257.3H776.521V259H768.237ZM778.437 247.609V245.909H788.569V247.609H784.484V259H782.516V247.609H778.437ZM790.808 259V245.909H792.783V251.598H799.309V245.909H801.291V259H799.309V253.292H792.783V259H790.808ZM813.026 250.045C812.903 249.657 812.737 249.31 812.528 249.003C812.323 248.692 812.078 248.428 811.793 248.21C811.507 247.989 811.181 247.82 810.815 247.705C810.452 247.59 810.054 247.533 809.619 247.533C808.882 247.533 808.217 247.722 807.625 248.102C807.033 248.481 806.564 249.037 806.219 249.77C805.878 250.499 805.707 251.391 805.707 252.448C805.707 253.509 805.88 254.406 806.225 255.139C806.57 255.872 807.043 256.428 807.644 256.808C808.245 257.187 808.929 257.376 809.696 257.376C810.408 257.376 811.028 257.232 811.556 256.942C812.089 256.652 812.5 256.243 812.79 255.714C813.084 255.182 813.231 254.555 813.231 253.835L813.742 253.931H809.997V252.301H815.142V253.79C815.142 254.89 814.908 255.844 814.439 256.654C813.974 257.46 813.331 258.082 812.509 258.521C811.69 258.96 810.753 259.179 809.696 259.179C808.511 259.179 807.472 258.906 806.577 258.361C805.686 257.815 804.992 257.042 804.493 256.04C803.994 255.035 803.745 253.842 803.745 252.461C803.745 251.417 803.89 250.479 804.18 249.648C804.47 248.817 804.876 248.112 805.401 247.533C805.929 246.949 806.549 246.504 807.261 246.197C807.977 245.886 808.759 245.73 809.607 245.73C810.314 245.73 810.972 245.835 811.582 246.043C812.195 246.252 812.741 246.548 813.218 246.932C813.7 247.315 814.098 247.771 814.413 248.3C814.729 248.824 814.942 249.406 815.053 250.045H813.026ZM819.407 245.909V259H817.496V245.909H819.407ZM826.114 259.198C825.194 259.198 824.39 258.987 823.704 258.565C823.018 258.143 822.486 257.553 822.106 256.795C821.727 256.036 821.537 255.15 821.537 254.136C821.537 253.117 821.727 252.227 822.106 251.464C822.486 250.701 823.018 250.109 823.704 249.687C824.39 249.265 825.194 249.054 826.114 249.054C827.035 249.054 827.838 249.265 828.524 249.687C829.21 250.109 829.743 250.701 830.122 251.464C830.501 252.227 830.691 253.117 830.691 254.136C830.691 255.15 830.501 256.036 830.122 256.795C829.743 257.553 829.21 258.143 828.524 258.565C827.838 258.987 827.035 259.198 826.114 259.198ZM826.12 257.594C826.717 257.594 827.211 257.436 827.603 257.121C827.995 256.805 828.285 256.386 828.473 255.862C828.664 255.337 828.76 254.76 828.76 254.129C828.76 253.503 828.664 252.928 828.473 252.403C828.285 251.875 827.995 251.451 827.603 251.131C827.211 250.812 826.717 250.652 826.12 250.652C825.52 250.652 825.021 250.812 824.625 251.131C824.233 251.451 823.941 251.875 823.749 252.403C823.562 252.928 823.468 253.503 823.468 254.129C823.468 254.76 823.562 255.337 823.749 255.862C823.941 256.386 824.233 256.805 824.625 257.121C825.021 257.436 825.52 257.594 826.12 257.594ZM832.978 259V245.909H834.889V250.773H835.004C835.115 250.569 835.274 250.332 835.483 250.064C835.692 249.795 835.982 249.561 836.353 249.361C836.723 249.156 837.213 249.054 837.823 249.054C838.615 249.054 839.323 249.254 839.945 249.655C840.567 250.055 841.055 250.633 841.409 251.387C841.767 252.141 841.946 253.049 841.946 254.11C841.946 255.171 841.769 256.081 841.415 256.839C841.061 257.594 840.576 258.175 839.958 258.585C839.34 258.989 838.634 259.192 837.842 259.192C837.245 259.192 836.757 259.092 836.378 258.891C836.003 258.691 835.709 258.457 835.496 258.188C835.283 257.92 835.119 257.681 835.004 257.472H834.844V259H832.978ZM834.85 254.091C834.85 254.781 834.951 255.386 835.151 255.906C835.351 256.426 835.641 256.833 836.02 257.127C836.399 257.417 836.864 257.562 837.414 257.562C837.985 257.562 838.462 257.411 838.845 257.108C839.229 256.801 839.519 256.386 839.715 255.862C839.915 255.337 840.015 254.747 840.015 254.091C840.015 253.443 839.917 252.862 839.721 252.346C839.529 251.83 839.24 251.423 838.852 251.125C838.468 250.827 837.989 250.678 837.414 250.678C836.86 250.678 836.391 250.82 836.007 251.106C835.628 251.391 835.34 251.79 835.144 252.301C834.948 252.812 834.85 253.409 834.85 254.091ZM846.949 259.217C846.327 259.217 845.764 259.102 845.261 258.872C844.759 258.638 844.36 258.299 844.066 257.856C843.776 257.413 843.631 256.869 843.631 256.226C843.631 255.672 843.738 255.216 843.951 254.858C844.164 254.5 844.452 254.217 844.814 254.008C845.176 253.799 845.581 253.641 846.028 253.535C846.476 253.428 846.932 253.347 847.396 253.292C847.984 253.224 848.462 253.168 848.828 253.126C849.195 253.079 849.461 253.004 849.627 252.902C849.793 252.8 849.876 252.634 849.876 252.403V252.359C849.876 251.8 849.719 251.368 849.403 251.061C849.092 250.754 848.628 250.601 848.01 250.601C847.367 250.601 846.859 250.744 846.489 251.029C846.122 251.31 845.869 251.624 845.728 251.969L843.932 251.56C844.145 250.963 844.456 250.482 844.865 250.115C845.278 249.744 845.754 249.476 846.291 249.31C846.827 249.139 847.392 249.054 847.984 249.054C848.376 249.054 848.792 249.101 849.231 249.195C849.674 249.284 850.087 249.45 850.471 249.693C850.859 249.936 851.176 250.283 851.423 250.735C851.671 251.183 851.794 251.764 851.794 252.48V259H849.928V257.658H849.851C849.727 257.905 849.542 258.148 849.295 258.386C849.048 258.625 848.73 258.823 848.342 258.981C847.955 259.138 847.49 259.217 846.949 259.217ZM847.364 257.683C847.893 257.683 848.345 257.579 848.72 257.37C849.099 257.161 849.386 256.888 849.582 256.552C849.783 256.211 849.883 255.847 849.883 255.459V254.193C849.815 254.261 849.683 254.325 849.487 254.385C849.295 254.44 849.075 254.489 848.828 254.532C848.581 254.57 848.34 254.607 848.106 254.641C847.872 254.67 847.675 254.696 847.518 254.717C847.147 254.764 846.808 254.843 846.501 254.954C846.199 255.065 845.956 255.224 845.773 255.433C845.594 255.638 845.504 255.911 845.504 256.251C845.504 256.724 845.679 257.082 846.028 257.325C846.378 257.564 846.823 257.683 847.364 257.683ZM856.251 245.909V259H854.34V245.909H856.251ZM860.081 259.121C859.732 259.121 859.432 258.998 859.18 258.751C858.929 258.499 858.803 258.197 858.803 257.843C858.803 257.494 858.929 257.195 859.18 256.948C859.432 256.697 859.732 256.571 860.081 256.571C860.431 256.571 860.731 256.697 860.983 256.948C861.234 257.195 861.36 257.494 861.36 257.843C861.36 258.077 861.3 258.293 861.181 258.489C861.066 258.68 860.912 258.834 860.721 258.949C860.529 259.064 860.316 259.121 860.081 259.121ZM868.151 259.198C867.184 259.198 866.351 258.991 865.652 258.578C864.957 258.161 864.421 257.575 864.041 256.82C863.666 256.062 863.479 255.173 863.479 254.155C863.479 253.149 863.666 252.263 864.041 251.496C864.421 250.729 864.949 250.13 865.626 249.7C866.308 249.269 867.105 249.054 868.017 249.054C868.571 249.054 869.108 249.146 869.628 249.329C870.148 249.512 870.614 249.8 871.028 250.192C871.441 250.584 871.767 251.093 872.006 251.719C872.244 252.342 872.364 253.098 872.364 253.989V254.666H864.559V253.234H870.491C870.491 252.732 870.389 252.286 870.184 251.898C869.979 251.506 869.692 251.197 869.321 250.972C868.955 250.746 868.524 250.633 868.03 250.633C867.493 250.633 867.024 250.765 866.624 251.029C866.227 251.289 865.921 251.63 865.703 252.052C865.49 252.469 865.384 252.923 865.384 253.413V254.532C865.384 255.188 865.499 255.746 865.729 256.207C865.963 256.667 866.289 257.018 866.707 257.261C867.124 257.5 867.612 257.619 868.171 257.619C868.533 257.619 868.863 257.568 869.161 257.466C869.46 257.359 869.717 257.202 869.935 256.993C870.152 256.784 870.318 256.526 870.433 256.219L872.242 256.545C872.097 257.078 871.837 257.545 871.462 257.945C871.092 258.342 870.625 258.651 870.063 258.872C869.504 259.089 868.867 259.198 868.151 259.198ZM879.067 249.182V250.716H873.704V249.182H879.067ZM875.143 246.83H877.054V256.117C877.054 256.488 877.109 256.767 877.22 256.955C877.331 257.138 877.474 257.263 877.648 257.332C877.827 257.396 878.021 257.428 878.23 257.428C878.383 257.428 878.518 257.417 878.633 257.396C878.748 257.374 878.837 257.357 878.901 257.344L879.246 258.923C879.136 258.966 878.978 259.009 878.773 259.051C878.569 259.098 878.313 259.124 878.006 259.128C877.503 259.136 877.035 259.047 876.6 258.859C876.165 258.672 875.814 258.382 875.545 257.99C875.277 257.598 875.143 257.106 875.143 256.513V246.83ZM883.304 253.17V259H881.392V245.909H883.278V250.78H883.4C883.63 250.251 883.981 249.832 884.454 249.521C884.927 249.21 885.545 249.054 886.308 249.054C886.981 249.054 887.569 249.192 888.072 249.469C888.579 249.746 888.971 250.16 889.248 250.71C889.53 251.255 889.67 251.937 889.67 252.755V259H887.759V252.985C887.759 252.265 887.574 251.707 887.203 251.31C886.832 250.91 886.316 250.71 885.656 250.71C885.204 250.71 884.799 250.805 884.441 250.997C884.088 251.189 883.809 251.47 883.604 251.841C883.404 252.207 883.304 252.651 883.304 253.17Z" fill="#2563EB"/>
<rect x="159.654" y="104.5" width="152" height="54" rx="8" fill="#BBF7D0"/>
<path d="M225.054 128.848C224.986 128.243 224.705 127.774 224.21 127.442C223.716 127.105 223.094 126.937 222.344 126.937C221.807 126.937 221.343 127.022 220.951 127.192C220.558 127.359 220.254 127.589 220.036 127.883C219.823 128.173 219.717 128.503 219.717 128.874C219.717 129.185 219.789 129.453 219.934 129.679C220.083 129.905 220.277 130.094 220.516 130.248C220.759 130.397 221.019 130.523 221.296 130.625C221.573 130.723 221.839 130.804 222.095 130.868L223.373 131.2C223.791 131.303 224.219 131.441 224.658 131.616C225.097 131.79 225.504 132.021 225.879 132.306C226.254 132.592 226.556 132.945 226.786 133.367C227.021 133.789 227.138 134.294 227.138 134.882C227.138 135.624 226.946 136.282 226.563 136.857C226.183 137.433 225.632 137.886 224.907 138.219C224.187 138.551 223.316 138.717 222.293 138.717C221.313 138.717 220.465 138.562 219.749 138.251C219.033 137.94 218.473 137.499 218.068 136.928C217.663 136.352 217.439 135.67 217.397 134.882H219.378C219.416 135.355 219.57 135.749 219.838 136.065C220.111 136.376 220.458 136.608 220.88 136.761C221.306 136.911 221.773 136.985 222.28 136.985C222.838 136.985 223.335 136.898 223.769 136.723C224.208 136.544 224.553 136.297 224.805 135.982C225.056 135.662 225.182 135.289 225.182 134.863C225.182 134.475 225.071 134.158 224.85 133.911C224.632 133.663 224.336 133.459 223.961 133.297C223.59 133.135 223.171 132.992 222.702 132.869L221.155 132.447C220.107 132.161 219.276 131.741 218.662 131.188C218.053 130.634 217.748 129.901 217.748 128.989C217.748 128.234 217.953 127.576 218.362 127.013C218.771 126.451 219.325 126.014 220.024 125.703C220.723 125.388 221.511 125.23 222.389 125.23C223.275 125.23 224.057 125.386 224.735 125.697C225.416 126.008 225.953 126.436 226.345 126.982C226.737 127.523 226.942 128.145 226.959 128.848H225.054ZM229.345 142.182V128.682H231.211V130.273H231.371C231.482 130.069 231.642 129.832 231.851 129.564C232.059 129.295 232.349 129.061 232.72 128.861C233.091 128.656 233.581 128.554 234.19 128.554C234.983 128.554 235.69 128.754 236.312 129.155C236.934 129.555 237.422 130.133 237.776 130.887C238.134 131.641 238.313 132.549 238.313 133.61C238.313 134.671 238.136 135.581 237.782 136.339C237.429 137.094 236.943 137.675 236.325 138.085C235.707 138.489 235.002 138.692 234.209 138.692C233.613 138.692 233.125 138.592 232.745 138.391C232.37 138.191 232.076 137.957 231.863 137.688C231.65 137.42 231.486 137.181 231.371 136.972H231.256V142.182H229.345ZM231.218 133.591C231.218 134.281 231.318 134.886 231.518 135.406C231.718 135.926 232.008 136.333 232.387 136.627C232.767 136.917 233.231 137.062 233.781 137.062C234.352 137.062 234.829 136.911 235.213 136.608C235.596 136.301 235.886 135.886 236.082 135.362C236.282 134.837 236.383 134.247 236.383 133.591C236.383 132.943 236.284 132.362 236.088 131.846C235.897 131.33 235.607 130.923 235.219 130.625C234.836 130.327 234.356 130.178 233.781 130.178C233.227 130.178 232.758 130.32 232.375 130.606C231.995 130.891 231.708 131.29 231.512 131.801C231.316 132.312 231.218 132.909 231.218 133.591ZM242.365 125.409V138.5H240.454V125.409H242.365ZM244.937 138.5V128.682H246.848V138.5H244.937ZM245.902 127.167C245.569 127.167 245.284 127.056 245.045 126.835C244.811 126.609 244.694 126.34 244.694 126.029C244.694 125.714 244.811 125.445 245.045 125.224C245.284 124.998 245.569 124.885 245.902 124.885C246.234 124.885 246.518 124.998 246.752 125.224C246.991 125.445 247.11 125.714 247.11 126.029C247.11 126.34 246.991 126.609 246.752 126.835C246.518 127.056 246.234 127.167 245.902 127.167ZM254.002 128.682V130.216H248.639V128.682H254.002ZM250.077 126.33H251.989V135.617C251.989 135.988 252.044 136.267 252.155 136.455C252.266 136.638 252.408 136.763 252.583 136.832C252.762 136.896 252.956 136.928 253.165 136.928C253.318 136.928 253.452 136.917 253.568 136.896C253.683 136.874 253.772 136.857 253.836 136.844L254.181 138.423C254.07 138.466 253.913 138.509 253.708 138.551C253.504 138.598 253.248 138.624 252.941 138.628C252.438 138.636 251.97 138.547 251.535 138.359C251.1 138.172 250.749 137.882 250.48 137.49C250.212 137.098 250.077 136.606 250.077 136.013V126.33Z" fill="#16A34A"/>
<rect x="455.654" y="186" width="152" height="54" rx="8" fill="#BBF7D0"/>
<path d="M521.054 210.348C520.986 209.743 520.705 209.274 520.21 208.942C519.716 208.605 519.094 208.437 518.344 208.437C517.807 208.437 517.343 208.522 516.951 208.692C516.558 208.859 516.254 209.089 516.036 209.383C515.823 209.673 515.717 210.003 515.717 210.374C515.717 210.685 515.789 210.953 515.934 211.179C516.083 211.405 516.277 211.594 516.516 211.748C516.759 211.897 517.019 212.023 517.296 212.125C517.573 212.223 517.839 212.304 518.095 212.368L519.373 212.7C519.791 212.803 520.219 212.941 520.658 213.116C521.097 213.29 521.504 213.521 521.879 213.806C522.254 214.092 522.556 214.445 522.786 214.867C523.021 215.289 523.138 215.794 523.138 216.382C523.138 217.124 522.946 217.782 522.563 218.357C522.183 218.933 521.632 219.386 520.907 219.719C520.187 220.051 519.316 220.217 518.293 220.217C517.313 220.217 516.465 220.062 515.749 219.751C515.033 219.44 514.473 218.999 514.068 218.428C513.663 217.852 513.439 217.17 513.397 216.382H515.378C515.416 216.855 515.57 217.249 515.838 217.565C516.111 217.876 516.458 218.108 516.88 218.261C517.306 218.411 517.773 218.485 518.28 218.485C518.838 218.485 519.335 218.398 519.769 218.223C520.208 218.044 520.553 217.797 520.805 217.482C521.056 217.162 521.182 216.789 521.182 216.363C521.182 215.975 521.071 215.658 520.85 215.411C520.632 215.163 520.336 214.959 519.961 214.797C519.59 214.635 519.171 214.492 518.702 214.369L517.155 213.947C516.107 213.661 515.276 213.241 514.662 212.688C514.053 212.134 513.748 211.401 513.748 210.489C513.748 209.734 513.953 209.076 514.362 208.513C514.771 207.951 515.325 207.514 516.024 207.203C516.723 206.888 517.511 206.73 518.389 206.73C519.275 206.73 520.057 206.886 520.735 207.197C521.416 207.508 521.953 207.936 522.345 208.482C522.737 209.023 522.942 209.645 522.959 210.348H521.054ZM525.345 223.682V210.182H527.211V211.773H527.371C527.482 211.569 527.642 211.332 527.851 211.064C528.059 210.795 528.349 210.561 528.72 210.361C529.091 210.156 529.581 210.054 530.19 210.054C530.983 210.054 531.69 210.254 532.312 210.655C532.934 211.055 533.422 211.633 533.776 212.387C534.134 213.141 534.313 214.049 534.313 215.11C534.313 216.171 534.136 217.081 533.782 217.839C533.429 218.594 532.943 219.175 532.325 219.585C531.707 219.989 531.002 220.192 530.209 220.192C529.613 220.192 529.125 220.092 528.745 219.891C528.37 219.691 528.076 219.457 527.863 219.188C527.65 218.92 527.486 218.681 527.371 218.472H527.256V223.682H525.345ZM527.218 215.091C527.218 215.781 527.318 216.386 527.518 216.906C527.718 217.426 528.008 217.833 528.387 218.127C528.767 218.417 529.231 218.562 529.781 218.562C530.352 218.562 530.829 218.411 531.213 218.108C531.596 217.801 531.886 217.386 532.082 216.862C532.282 216.337 532.383 215.747 532.383 215.091C532.383 214.443 532.284 213.862 532.088 213.346C531.897 212.83 531.607 212.423 531.219 212.125C530.836 211.827 530.356 211.678 529.781 211.678C529.227 211.678 528.758 211.82 528.375 212.106C527.995 212.391 527.708 212.79 527.512 213.301C527.316 213.812 527.218 214.409 527.218 215.091ZM538.365 206.909V220H536.454V206.909H538.365ZM540.937 220V210.182H542.848V220H540.937ZM541.902 208.667C541.569 208.667 541.284 208.556 541.045 208.335C540.811 208.109 540.694 207.84 540.694 207.529C540.694 207.214 540.811 206.945 541.045 206.724C541.284 206.498 541.569 206.385 541.902 206.385C542.234 206.385 542.518 206.498 542.752 206.724C542.991 206.945 543.11 207.214 543.11 207.529C543.11 207.84 542.991 208.109 542.752 208.335C542.518 208.556 542.234 208.667 541.902 208.667ZM550.002 210.182V211.716H544.639V210.182H550.002ZM546.077 207.83H547.989V217.117C547.989 217.488 548.044 217.767 548.155 217.955C548.266 218.138 548.408 218.263 548.583 218.332C548.762 218.396 548.956 218.428 549.165 218.428C549.318 218.428 549.452 218.417 549.568 218.396C549.683 218.374 549.772 218.357 549.836 218.344L550.181 219.923C550.07 219.966 549.913 220.009 549.708 220.051C549.504 220.098 549.248 220.124 548.941 220.128C548.438 220.136 547.97 220.047 547.535 219.859C547.1 219.672 546.749 219.382 546.48 218.99C546.212 218.598 546.077 218.106 546.077 217.513V207.83Z" fill="#16A34A"/>
<path d="M152.361 132.694C152.752 132.304 152.751 131.671 152.361 131.28L145.996 124.917C145.606 124.526 144.973 124.526 144.582 124.917C144.192 125.308 144.192 125.941 144.582 126.331L150.24 131.987L144.583 137.645C144.193 138.035 144.193 138.669 144.583 139.059C144.974 139.45 145.607 139.45 145.998 139.059L152.361 132.694ZM25.9947 133C26.547 133 26.9946 132.552 26.9946 132C26.9945 131.447 26.5468 131 25.9945 131L25.9947 133ZM29.9837 130.999C29.4314 130.999 28.9837 131.447 28.9838 132C28.9838 132.552 29.4316 132.999 29.9839 132.999L29.9837 130.999ZM33.9731 132.999C34.5253 132.999 34.973 132.551 34.973 131.999C34.9729 131.447 34.5251 130.999 33.9729 130.999L33.9731 132.999ZM37.962 130.999C37.4098 130.999 36.9621 131.446 36.9621 131.999C36.9622 132.551 37.41 132.999 37.9622 132.999L37.962 130.999ZM41.9514 132.998C42.5037 132.998 42.9514 132.55 42.9513 131.998C42.9513 131.446 42.5035 130.998 41.9512 130.998L41.9514 132.998ZM45.9404 130.998C45.3881 130.998 44.9405 131.446 44.9405 131.998C44.9406 132.55 45.3883 132.998 45.9406 132.998L45.9404 130.998ZM49.9298 132.997C50.4821 132.997 50.9297 132.55 50.9297 131.997C50.9296 131.445 50.4819 130.997 49.9296 130.997L49.9298 132.997ZM53.9188 130.997C53.3665 130.997 52.9188 131.445 52.9189 131.997C52.9189 132.549 53.3667 132.997 53.919 132.997L53.9188 130.997ZM57.9082 132.997C58.4604 132.997 58.9081 132.549 58.9081 131.997C58.908 131.444 58.4602 130.997 57.908 130.997L57.9082 132.997ZM61.8971 130.996C61.3449 130.996 60.8972 131.444 60.8972 131.996C60.8973 132.549 61.3451 132.996 61.8973 132.996L61.8971 130.996ZM65.8865 132.996C66.4388 132.996 66.8865 132.548 66.8864 131.996C66.8864 131.443 66.4386 130.996 65.8863 130.996L65.8865 132.996ZM69.8755 130.995C69.3232 130.996 68.8755 131.443 68.8756 131.996C68.8757 132.548 69.3234 132.996 69.8757 132.995L69.8755 130.995ZM73.8649 132.995C74.4172 132.995 74.8648 132.547 74.8648 131.995C74.8647 131.443 74.417 130.995 73.8647 130.995L73.8649 132.995ZM77.8539 130.995C77.3016 130.995 76.8539 131.442 76.854 131.995C76.854 132.547 77.3018 132.995 77.8541 132.995L77.8539 130.995ZM81.8432 132.994C82.3955 132.994 82.8432 132.546 82.8431 131.994C82.8431 131.442 82.3953 130.994 81.843 130.994L81.8432 132.994ZM85.8322 130.994C85.2799 130.994 84.8323 131.442 84.8323 131.994C84.8324 132.546 85.2801 132.994 85.8324 132.994L85.8322 130.994ZM89.8216 132.993C90.3739 132.993 90.8216 132.546 90.8215 131.993C90.8215 131.441 90.3737 130.993 89.8214 130.993L89.8216 132.993ZM93.8106 130.993C93.2583 130.993 92.8106 131.441 92.8107 131.993C92.8107 132.545 93.2585 132.993 93.8108 132.993L93.8106 130.993ZM97.8 132.993C98.3523 132.993 98.7999 132.545 98.7999 131.993C98.7998 131.44 98.3521 130.993 97.7998 130.993L97.8 132.993ZM101.789 130.992C101.237 130.992 100.789 131.44 100.789 131.992C100.789 132.545 101.237 132.992 101.789 132.992L101.789 130.992ZM105.778 132.992C106.331 132.992 106.778 132.544 106.778 131.992C106.778 131.44 106.33 130.992 105.778 130.992L105.778 132.992ZM109.767 130.992C109.215 130.992 108.767 131.439 108.767 131.992C108.767 132.544 109.215 132.992 109.768 132.992L109.767 130.992ZM113.757 132.991C114.309 132.991 114.757 132.543 114.757 131.991C114.757 131.439 114.309 130.991 113.756 130.991L113.757 132.991ZM117.746 130.991C117.193 130.991 116.746 131.439 116.746 131.991C116.746 132.543 117.194 132.991 117.746 132.991L117.746 130.991ZM121.735 132.99C122.287 132.99 122.735 132.543 122.735 131.99C122.735 131.438 122.287 130.99 121.735 130.99L121.735 132.99ZM125.724 130.99C125.172 130.99 124.724 131.438 124.724 131.99C124.724 132.542 125.172 132.99 125.724 132.99L125.724 130.99ZM129.713 132.99C130.266 132.989 130.713 132.542 130.713 131.989C130.713 131.437 130.266 130.989 129.713 130.99L129.713 132.99ZM133.702 130.989C133.15 130.989 132.702 131.437 132.703 131.989C132.703 132.542 133.15 132.989 133.703 132.989L133.702 130.989ZM137.692 132.989C138.244 132.989 138.692 132.541 138.692 131.989C138.692 131.436 138.244 130.989 137.692 130.989L137.692 132.989ZM141.681 130.988C141.128 130.988 140.681 131.436 140.681 131.988C140.681 132.541 141.129 132.988 141.681 132.988L141.681 130.988ZM145.67 132.988C146.222 132.988 146.67 132.54 146.67 131.988C146.67 131.436 146.222 130.988 145.67 130.988L145.67 132.988ZM149.659 130.988C149.107 130.988 148.659 131.435 148.659 131.988C148.659 132.54 149.107 132.988 149.659 132.988L149.659 130.988ZM24.0001 133L25.9947 133L25.9945 131L23.9999 131L24.0001 133ZM29.9839 132.999L33.9731 132.999L33.9729 130.999L29.9837 130.999L29.9839 132.999ZM37.9622 132.999L41.9514 132.998L41.9512 130.998L37.962 130.999L37.9622 132.999ZM45.9406 132.998L49.9298 132.997L49.9296 130.997L45.9404 130.998L45.9406 132.998ZM53.919 132.997L57.9082 132.997L57.908 130.997L53.9188 130.997L53.919 132.997ZM61.8973 132.996L65.8865 132.996L65.8863 130.996L61.8971 130.996L61.8973 132.996ZM69.8757 132.995L73.8649 132.995L73.8647 130.995L69.8755 130.995L69.8757 132.995ZM77.8541 132.995L81.8432 132.994L81.843 130.994L77.8539 130.995L77.8541 132.995ZM85.8324 132.994L89.8216 132.993L89.8214 130.993L85.8322 130.994L85.8324 132.994ZM93.8108 132.993L97.8 132.993L97.7998 130.993L93.8106 130.993L93.8108 132.993ZM101.789 132.992L105.778 132.992L105.778 130.992L101.789 130.992L101.789 132.992ZM109.768 132.992L113.757 132.991L113.756 130.991L109.767 130.992L109.768 132.992ZM117.746 132.991L121.735 132.99L121.735 130.99L117.746 130.991L117.746 132.991ZM125.724 132.99L129.713 132.99L129.713 130.99L125.724 130.99L125.724 132.99ZM133.703 132.989L137.692 132.989L137.692 130.989L133.702 130.989L133.703 132.989ZM141.681 132.988L145.67 132.988L145.67 130.988L141.681 130.988L141.681 132.988ZM149.659 132.988L151.654 132.987L151.654 130.987L149.659 130.988L149.659 132.988Z" fill="#64748B"/>
<path d="M320 131C319.448 131 319 131.448 319 132C319 132.552 319.448 133 320 133L320 131ZM448.361 132.694C448.752 132.304 448.751 131.671 448.361 131.28L441.996 124.917C441.606 124.526 440.973 124.526 440.582 124.917C440.192 125.308 440.192 125.941 440.582 126.331L446.24 131.987L440.583 137.645C440.193 138.035 440.193 138.669 440.583 139.059C440.974 139.45 441.607 139.45 441.998 139.059L448.361 132.694ZM320 133L447.654 132.987L447.654 130.987L320 131L320 133Z" fill="#64748B"/>
<path d="M320 131C319.448 131 319 131.448 319 132C319 132.552 319.448 133 320 133V131ZM447.728 52.7071C448.119 52.3166 448.119 51.6834 447.728 51.2929L441.364 44.9289C440.974 44.5384 440.341 44.5384 439.95 44.9289C439.56 45.3195 439.56 45.9526 439.95 46.3431L445.607 52L439.95 57.6569C439.56 58.0474 439.56 58.6805 439.95 59.0711C440.341 59.4616 440.974 59.4616 441.364 59.0711L447.728 52.7071ZM320 133H368.011V131H320V133ZM385.011 116V68H383.011V116H385.011ZM400.011 53H447.021V51H400.011V53ZM385.011 68C385.011 59.7157 391.726 53 400.011 53V51C390.622 51 383.011 58.6112 383.011 68H385.011ZM368.011 133C377.399 133 385.011 125.389 385.011 116H383.011C383.011 124.284 376.295 131 368.011 131V133Z" fill="#64748B"/>
<path d="M320 131.5C319.448 131.5 319 131.948 319 132.5C319 133.052 319.448 133.5 320 133.5V131.5ZM447.728 213.207C448.119 212.817 448.119 212.183 447.728 211.793L441.364 205.429C440.974 205.038 440.341 205.038 439.95 205.429C439.56 205.819 439.56 206.453 439.95 206.843L445.607 212.5L439.95 218.157C439.56 218.547 439.56 219.181 439.95 219.571C440.341 219.962 440.974 219.962 441.364 219.571L447.728 213.207ZM320 133.5H368.011V131.5H320V133.5ZM383.011 148.5V196.5H385.011V148.5H383.011ZM400.011 213.5H447.021V211.5H400.011V213.5ZM383.011 196.5C383.011 205.889 390.622 213.5 400.011 213.5V211.5C391.726 211.5 385.011 204.784 385.011 196.5H383.011ZM368.011 133.5C376.295 133.5 383.011 140.216 383.011 148.5H385.011C385.011 139.111 377.399 131.5 368.011 131.5V133.5Z" fill="#64748B"/>
<path d="M616 211C615.448 211 615 211.448 615 212C615 212.552 615.448 213 616 213V211ZM743.728 172.707C744.119 172.317 744.119 171.683 743.728 171.293L737.364 164.929C736.974 164.538 736.341 164.538 735.95 164.929C735.56 165.319 735.56 165.953 735.95 166.343L741.607 172L735.95 177.657C735.56 178.047 735.56 178.681 735.95 179.071C736.341 179.462 736.974 179.462 737.364 179.071L743.728 172.707ZM616 213H664.011V211H616V213ZM681.011 196V188H679.011V196H681.011ZM696.011 173H743.021V171H696.011V173ZM681.011 188C681.011 179.716 687.726 173 696.011 173V171C686.622 171 679.011 178.611 679.011 188H681.011ZM664.011 213C673.399 213 681.011 205.389 681.011 196H679.011C679.011 204.284 672.295 211 664.011 211V213Z" fill="#64748B"/>
<path d="M616 211C615.448 211 615 211.448 615 212C615 212.552 615.448 213 616 213V211ZM743.728 252.707C744.119 252.317 744.119 251.683 743.728 251.293L737.364 244.929C736.974 244.538 736.341 244.538 735.95 244.929C735.56 245.319 735.56 245.953 735.95 246.343L741.607 252L735.95 257.657C735.56 258.047 735.56 258.681 735.95 259.071C736.341 259.462 736.974 259.462 737.364 259.071L743.728 252.707ZM616 213H664.011V211H616V213ZM679.011 228V236H681.011V228H679.011ZM696.011 253H743.021V251H696.011V253ZM679.011 236C679.011 245.389 686.622 253 696.011 253V251C687.726 251 681.011 244.284 681.011 236H679.011ZM664.011 213C672.295 213 679.011 219.716 679.011 228H681.011C681.011 218.611 673.399 211 664.011 211V213Z" fill="#64748B"/>
</svg>
