<svg width="328" height="328" viewBox="0 0 328 328" fill="currentColor" xmlns="http://www.w3.org/2000/svg">
<path d="M30.8316 194.752C47.8594 194.752 61.6631 180.948 61.6631 163.921C61.6631 146.893 47.8594 133.089 30.8316 133.089C13.8038 133.089 0 146.893 0 163.921C0 180.948 13.8038 194.752 30.8316 194.752Z" fill="currentColor"/>
<path d="M102.039 190.127C116.512 190.127 128.246 178.394 128.246 163.92C128.246 149.447 116.512 137.714 102.039 137.714C87.5652 137.714 75.832 149.447 75.832 163.92C75.832 178.394 87.5652 190.127 102.039 190.127Z" fill="currentColor"/>
<path d="M173.252 185.503C185.172 185.503 194.834 175.84 194.834 163.92C194.834 152.001 185.172 142.338 173.252 142.338C161.333 142.338 151.67 152.001 151.67 163.92C151.67 175.84 161.333 185.503 173.252 185.503Z" fill="currentColor"/>
<path d="M244.46 180.878C253.825 180.878 261.417 173.286 261.417 163.921C261.417 154.555 253.825 146.963 244.46 146.963C235.095 146.963 227.503 154.555 227.503 163.921C227.503 173.286 235.095 180.878 244.46 180.878Z" fill="currentColor"/>
<path d="M315.667 176.253C322.478 176.253 328 170.732 328 163.921C328 157.109 322.478 151.588 315.667 151.588C308.856 151.588 303.335 157.109 303.335 163.921C303.335 170.732 308.856 176.253 315.667 176.253Z" fill="currentColor"/>
<path d="M66.4353 251.796C80.909 251.796 92.6422 240.063 92.6422 225.59C92.6422 211.116 80.909 199.383 66.4353 199.383C51.9617 199.383 40.2285 211.116 40.2285 225.59C40.2285 240.063 51.9617 251.796 66.4353 251.796Z" fill="currentColor"/>
<path d="M137.648 247.172C149.568 247.172 159.231 237.509 159.231 225.589C159.231 213.67 149.568 204.007 137.648 204.007C125.729 204.007 116.066 213.67 116.066 225.589C116.066 237.509 125.729 247.172 137.648 247.172Z" fill="currentColor"/>
<path d="M208.856 242.547C218.222 242.547 225.814 234.955 225.814 225.59C225.814 216.225 218.222 208.633 208.856 208.633C199.491 208.633 191.899 216.225 191.899 225.59C191.899 234.955 199.491 242.547 208.856 242.547Z" fill="currentColor"/>
<path d="M280.064 237.923C286.875 237.923 292.396 232.401 292.396 225.59C292.396 218.779 286.875 213.257 280.064 213.257C273.252 213.257 267.731 218.779 267.731 225.59C267.731 232.401 273.252 237.923 280.064 237.923Z" fill="currentColor"/>
<path d="M102.039 308.835C113.958 308.835 123.621 299.172 123.621 287.253C123.621 275.334 113.958 265.671 102.039 265.671C90.1194 265.671 80.4568 275.334 80.4568 287.253C80.4568 299.172 90.1194 308.835 102.039 308.835Z" fill="currentColor"/>
<path d="M173.252 304.211C182.618 304.211 190.21 296.619 190.21 287.253C190.21 277.888 182.618 270.296 173.252 270.296C163.887 270.296 156.295 277.888 156.295 287.253C156.295 296.619 163.887 304.211 173.252 304.211Z" fill="currentColork"/>
<path d="M244.46 299.587C251.271 299.587 256.792 294.065 256.792 287.254C256.792 280.443 251.271 274.921 244.46 274.921C237.648 274.921 232.127 280.443 232.127 287.254C232.127 294.065 237.648 299.587 244.46 299.587Z" fill="currentColor"/>
<path d="M66.4353 128.458C80.909 128.458 92.6422 116.725 92.6422 102.252C92.6422 87.7779 80.909 76.0447 66.4353 76.0447C51.9617 76.0447 40.2285 87.7779 40.2285 102.252C40.2285 116.725 51.9617 128.458 66.4353 128.458Z" fill="currentColor"/>
<path d="M137.648 123.834C149.568 123.834 159.231 114.171 159.231 102.252C159.231 90.3321 149.568 80.6694 137.648 80.6694C125.729 80.6694 116.066 90.3321 116.066 102.252C116.066 114.171 125.729 123.834 137.648 123.834Z" fill="currentColor"/>
<path d="M208.856 119.208C218.222 119.208 225.814 111.616 225.814 102.251C225.814 92.8858 218.222 85.2937 208.856 85.2937C199.491 85.2937 191.899 92.8858 191.899 102.251C191.899 111.616 199.491 119.208 208.856 119.208Z" fill="currentColor"/>
<path d="M280.064 114.584C286.875 114.584 292.396 109.062 292.396 102.251C292.396 95.44 286.875 89.9185 280.064 89.9185C273.252 89.9185 267.731 95.44 267.731 102.251C267.731 109.062 273.252 114.584 280.064 114.584Z" fill="currentColor"/>
<path d="M102.039 62.1642C113.958 62.1642 123.621 52.5015 123.621 40.5821C123.621 28.6626 113.958 19 102.039 19C90.1194 19 80.4568 28.6626 80.4568 40.5821C80.4568 52.5015 90.1194 62.1642 102.039 62.1642Z" fill="currentColor"/>
<path d="M173.252 57.5395C182.618 57.5395 190.21 49.9474 190.21 40.5821C190.21 31.2168 182.618 23.6248 173.252 23.6248C163.887 23.6248 156.295 31.2168 156.295 40.5821C156.295 49.9474 163.887 57.5395 173.252 57.5395Z" fill="currentColor"/>
<path d="M244.46 52.9145C251.271 52.9145 256.792 47.393 256.792 40.5819C256.792 33.7708 251.271 28.2493 244.46 28.2493C237.648 28.2493 232.127 33.7708 232.127 40.5819C232.127 47.393 237.648 52.9145 244.46 52.9145Z" fill="currentColor"/>
</svg>
