<svg width="200" height="200" viewBox="0 0 200 200" fill="none" xmlns="http://www.w3.org/2000/svg">
<circle cx="60" cy="20" r="12.8" fill="#525252"/>
<circle cx="60" cy="100" r="16" fill="#525252"/>
<circle cx="60" cy="180" r="12.8" fill="#525252"/>
<circle cx="40" cy="140" r="16" fill="#525252"/>
<circle cx="100" cy="20" r="9.6" fill="#525252"/>
<circle cx="100" cy="100" r="12.8" fill="#525252"/>
<circle cx="100" cy="180" r="9.6" fill="#525252"/>
<circle cx="80" cy="59.9998" r="12.8" fill="#525252"/>
<circle cx="80" cy="140" r="12.8" fill="#525252"/>
<circle cx="140" cy="20" r="6.4" fill="#525252"/>
<circle cx="140" cy="100" r="9.6" fill="#525252"/>
<circle cx="140" cy="180" r="6.4" fill="#525252"/>
<circle cx="120" cy="59.9999" r="9.6" fill="#525252"/>
<circle cx="120" cy="140" r="9.6" fill="#525252"/>
<circle cx="180" cy="100" r="6.4" fill="#525252"/>
<circle cx="160" cy="59.9999" r="6.4" fill="#525252"/>
<circle cx="160" cy="140" r="6.4" fill="#525252"/>
<circle cx="40" cy="59.9999" r="16" fill="#525252"/>
<g clip-path="url(#clip0_236_1097)">
<circle cx="20.0001" cy="100" r="19.2" fill="#525252"/>
</g>
<defs>
<clipPath id="clip0_236_1097">
<rect width="40" height="40" fill="white" transform="translate(0 80.0002)"/>
</clipPath>
</defs>
</svg>
