<svg width="582" height="155" viewBox="0 0 582 155" fill="none" xmlns="http://www.w3.org/2000/svg">
<path d="M15.9565 93.4598C24.769 93.4598 31.9129 86.3158 31.9129 77.5033C31.9129 68.6908 24.769 61.5469 15.9565 61.5469C7.14396 61.5469 0 68.6908 0 77.5033C0 86.3158 7.14396 93.4598 15.9565 93.4598Z" fill="white"/>
<path d="M52.8076 91.0635C60.2983 91.0635 66.3706 84.9911 66.3706 77.5005C66.3706 70.0099 60.2983 63.9375 52.8076 63.9375C45.317 63.9375 39.2446 70.0099 39.2446 77.5005C39.2446 84.9911 45.317 91.0635 52.8076 91.0635Z" fill="white"/>
<path d="M89.6661 88.6701C95.8349 88.6701 100.836 83.6693 100.836 77.5006C100.836 71.3318 95.8349 66.3311 89.6661 66.3311C83.4973 66.3311 78.4966 71.3318 78.4966 77.5006C78.4966 83.6693 83.4973 88.6701 89.6661 88.6701Z" fill="white"/>
<path d="M126.517 86.2796C131.364 86.2796 135.293 82.3505 135.293 77.5036C135.293 72.6567 131.364 68.7275 126.517 68.7275C121.67 68.7275 117.741 72.6567 117.741 77.5036C117.741 82.3505 121.67 86.2796 126.517 86.2796Z" fill="white"/>
<path d="M163.368 83.8828C166.893 83.8828 169.751 81.0253 169.751 77.5003C169.751 73.9753 166.893 71.1177 163.368 71.1177C159.843 71.1177 156.986 73.9753 156.986 77.5003C156.986 81.0253 159.843 83.8828 163.368 83.8828Z" fill="white"/>
<path d="M34.3823 122.978C41.873 122.978 47.9453 116.905 47.9453 109.415C47.9453 101.924 41.873 95.8516 34.3823 95.8516C26.8917 95.8516 20.8193 101.924 20.8193 109.415C20.8193 116.905 26.8917 122.978 34.3823 122.978Z" fill="white"/>
<path d="M71.2394 120.59C77.4081 120.59 82.4089 115.589 82.4089 109.42C82.4089 103.251 77.4081 98.2505 71.2394 98.2505C65.0706 98.2505 60.0698 103.251 60.0698 109.42C60.0698 115.589 65.0706 120.59 71.2394 120.59Z" fill="white"/>
<path d="M108.091 118.193C112.937 118.193 116.867 114.264 116.867 109.417C116.867 104.57 112.937 100.641 108.091 100.641C103.244 100.641 99.3145 104.57 99.3145 109.417C99.3145 114.264 103.244 118.193 108.091 118.193Z" fill="white"/>
<path d="M144.942 115.797C148.467 115.797 151.324 112.94 151.324 109.415C151.324 105.89 148.467 103.032 144.942 103.032C141.417 103.032 138.559 105.89 138.559 109.415C138.559 112.94 141.417 115.797 144.942 115.797Z" fill="white"/>
<path d="M52.8092 152.5C58.9779 152.5 63.9787 147.499 63.9787 141.331C63.9787 135.162 58.9779 130.161 52.8092 130.161C46.6404 130.161 41.6396 135.162 41.6396 141.331C41.6396 147.499 46.6404 152.5 52.8092 152.5Z" fill="white"/>
<path d="M89.6637 150.105C94.5106 150.105 98.4398 146.176 98.4398 141.329C98.4398 136.482 94.5106 132.553 89.6637 132.553C84.8169 132.553 80.8877 136.482 80.8877 141.329C80.8877 146.176 84.8169 150.105 89.6637 150.105Z" fill="white"/>
<path d="M126.519 147.716C130.044 147.716 132.901 144.858 132.901 141.333C132.901 137.808 130.044 134.951 126.519 134.951C122.994 134.951 120.136 137.808 120.136 141.333C120.136 144.858 122.994 147.716 126.519 147.716Z" fill="white"/>
<path d="M34.3823 59.1489C41.873 59.1489 47.9453 53.0766 47.9453 45.5859C47.9453 38.0953 41.873 32.0229 34.3823 32.0229C26.8917 32.0229 20.8193 38.0953 20.8193 45.5859C20.8193 53.0766 26.8917 59.1489 34.3823 59.1489Z" fill="white"/>
<path d="M71.2394 56.7531C77.4081 56.7531 82.4089 51.7523 82.4089 45.5836C82.4089 39.4148 77.4081 34.4141 71.2394 34.4141C65.0706 34.4141 60.0698 39.4148 60.0698 45.5836C60.0698 51.7523 65.0706 56.7531 71.2394 56.7531Z" fill="white"/>
<path d="M108.091 54.3651C112.937 54.3651 116.867 50.4359 116.867 45.589C116.867 40.7422 112.937 36.813 108.091 36.813C103.244 36.813 99.3145 40.7422 99.3145 45.589C99.3145 50.4359 103.244 54.3651 108.091 54.3651Z" fill="white"/>
<path d="M144.942 51.9693C148.467 51.9693 151.324 49.1117 151.324 45.5867C151.324 42.0617 148.467 39.2041 144.942 39.2041C141.417 39.2041 138.559 42.0617 138.559 45.5867C138.559 49.1117 141.417 51.9693 144.942 51.9693Z" fill="white"/>
<path d="M52.8092 24.839C58.9779 24.839 63.9787 19.8383 63.9787 13.6695C63.9787 7.50076 58.9779 2.5 52.8092 2.5C46.6404 2.5 41.6396 7.50076 41.6396 13.6695C41.6396 19.8383 46.6404 24.839 52.8092 24.839Z" fill="white"/>
<path d="M89.6637 22.4427C94.5106 22.4427 98.4398 18.5135 98.4398 13.6667C98.4398 8.8198 94.5106 4.89062 89.6637 4.89062C84.8169 4.89062 80.8877 8.8198 80.8877 13.6667C80.8877 18.5135 84.8169 22.4427 89.6637 22.4427Z" fill="white"/>
<path d="M126.519 20.0547C130.044 20.0547 132.901 17.1971 132.901 13.6721C132.901 10.1471 130.044 7.28955 126.519 7.28955C122.994 7.28955 120.136 10.1471 120.136 13.6721C120.136 17.1971 122.994 20.0547 126.519 20.0547Z" fill="white"/>
<path d="M293.524 56.5C293.099 52.5303 291.312 49.4394 288.16 47.2273C285.039 45.0151 280.978 43.9091 275.978 43.9091C272.463 43.9091 269.448 44.4394 266.933 45.5C264.418 46.5606 262.493 48 261.16 49.8182C259.827 51.6364 259.145 53.7121 259.115 56.0455C259.115 57.9848 259.554 59.6667 260.433 61.0909C261.342 62.5152 262.569 63.7273 264.115 64.7273C265.66 65.697 267.372 66.5151 269.251 67.1818C271.13 67.8485 273.024 68.4091 274.933 68.8636L283.66 71.0455C287.175 71.8636 290.554 72.9697 293.796 74.3636C297.069 75.7576 299.993 77.5152 302.569 79.6364C305.175 81.7576 307.236 84.3182 308.751 87.3182C310.266 90.3182 311.024 93.8333 311.024 97.8636C311.024 103.318 309.63 108.121 306.842 112.273C304.054 116.394 300.024 119.621 294.751 121.955C289.509 124.258 283.16 125.409 275.706 125.409C268.463 125.409 262.175 124.288 256.842 122.045C251.539 119.803 247.387 116.53 244.387 112.227C241.418 107.924 239.812 102.682 239.569 96.5H256.16C256.402 99.7424 257.402 102.439 259.16 104.591C260.918 106.742 263.206 108.348 266.024 109.409C268.872 110.47 272.054 111 275.569 111C279.236 111 282.448 110.455 285.206 109.364C287.993 108.242 290.175 106.697 291.751 104.727C293.327 102.727 294.13 100.394 294.16 97.7273C294.13 95.303 293.418 93.303 292.024 91.7273C290.63 90.1212 288.675 88.7879 286.16 87.7273C283.675 86.6364 280.766 85.6667 277.433 84.8182L266.842 82.0909C259.175 80.1212 253.115 77.1364 248.66 73.1364C244.236 69.1061 242.024 63.7576 242.024 57.0909C242.024 51.6061 243.509 46.803 246.478 42.6818C249.478 38.5606 253.554 35.3636 258.706 33.0909C263.857 30.7879 269.69 29.6364 276.206 29.6364C282.812 29.6364 288.599 30.7879 293.569 33.0909C298.569 35.3636 302.493 38.5303 305.342 42.5909C308.19 46.6212 309.66 51.2576 309.751 56.5H293.524ZM325.331 150.182V54.1818H341.512V65.7273H342.467C343.315 64.0303 344.512 62.2273 346.058 60.3182C347.603 58.3788 349.694 56.7273 352.331 55.3636C354.967 53.9697 358.331 53.2727 362.421 53.2727C367.815 53.2727 372.679 54.6515 377.012 57.4091C381.376 60.1364 384.831 64.1818 387.376 69.5455C389.952 74.8788 391.24 81.4242 391.24 89.1818C391.24 96.8485 389.982 103.364 387.467 108.727C384.952 114.091 381.527 118.182 377.194 121C372.861 123.818 367.952 125.227 362.467 125.227C358.467 125.227 355.149 124.561 352.512 123.227C349.876 121.894 347.755 120.288 346.149 118.409C344.573 116.5 343.346 114.697 342.467 113H341.785V150.182H325.331ZM341.467 89.0909C341.467 93.6061 342.103 97.5606 343.376 100.955C344.679 104.348 346.543 107 348.967 108.909C351.421 110.788 354.391 111.727 357.876 111.727C361.512 111.727 364.558 110.758 367.012 108.818C369.467 106.848 371.315 104.167 372.558 100.773C373.831 97.3485 374.467 93.4545 374.467 89.0909C374.467 84.7576 373.846 80.9091 372.603 77.5455C371.361 74.1818 369.512 71.5455 367.058 69.6364C364.603 67.7273 361.543 66.7727 357.876 66.7727C354.361 66.7727 351.376 67.697 348.921 69.5455C346.467 71.3939 344.603 73.9848 343.331 77.3182C342.088 80.6515 341.467 84.5758 341.467 89.0909ZM421.785 30.9091V124H405.331V30.9091H421.785ZM438.706 124V54.1818H455.16V124H438.706ZM446.978 44.2727C444.372 44.2727 442.13 43.4091 440.251 41.6818C438.372 39.9242 437.433 37.8182 437.433 35.3636C437.433 32.8788 438.372 30.7727 440.251 29.0454C442.13 27.2879 444.372 26.4091 446.978 26.4091C449.615 26.4091 451.857 27.2879 453.706 29.0454C455.584 30.7727 456.524 32.8788 456.524 35.3636C456.524 37.8182 455.584 39.9242 453.706 41.6818C451.857 43.4091 449.615 44.2727 446.978 44.2727ZM506.944 54.1818V66.9091H466.808V54.1818H506.944ZM476.717 37.4545H493.171V103C493.171 105.212 493.505 106.909 494.171 108.091C494.868 109.242 495.777 110.03 496.899 110.455C498.02 110.879 499.262 111.091 500.626 111.091C501.656 111.091 502.596 111.015 503.444 110.864C504.323 110.712 504.99 110.576 505.444 110.455L508.217 123.318C507.338 123.621 506.081 123.955 504.444 124.318C502.838 124.682 500.868 124.894 498.535 124.955C494.414 125.076 490.702 124.455 487.399 123.091C484.096 121.697 481.474 119.545 479.535 116.636C477.626 113.727 476.687 110.091 476.717 105.727V37.4545ZM574.887 72.6364L559.887 74.2727C559.463 72.7576 558.721 71.3333 557.66 70C556.63 68.6667 555.236 67.5909 553.478 66.7727C551.721 65.9545 549.569 65.5455 547.024 65.5455C543.599 65.5455 540.721 66.2879 538.387 67.7727C536.084 69.2576 534.948 71.1818 534.978 73.5455C534.948 75.5758 535.69 77.2273 537.206 78.5C538.751 79.7727 541.296 80.8182 544.842 81.6364L556.751 84.1818C563.357 85.6061 568.266 87.8636 571.478 90.9545C574.721 94.0455 576.357 98.0909 576.387 103.091C576.357 107.485 575.069 111.364 572.524 114.727C570.009 118.061 566.509 120.667 562.024 122.545C557.539 124.424 552.387 125.364 546.569 125.364C538.024 125.364 531.145 123.576 525.933 120C520.721 116.394 517.615 111.379 516.615 104.955L532.66 103.409C533.387 106.561 534.933 108.939 537.296 110.545C539.66 112.152 542.736 112.955 546.524 112.955C550.433 112.955 553.569 112.152 555.933 110.545C558.327 108.939 559.524 106.955 559.524 104.591C559.524 102.591 558.751 100.939 557.206 99.6364C555.69 98.3333 553.327 97.3333 550.115 96.6364L538.206 94.1364C531.509 92.7424 526.554 90.3939 523.342 87.0909C520.13 83.7576 518.539 79.5455 518.569 74.4545C518.539 70.1515 519.706 66.4242 522.069 63.2727C524.463 60.0909 527.781 57.6364 532.024 55.9091C536.296 54.1515 541.221 53.2727 546.796 53.2727C554.978 53.2727 561.418 55.0152 566.115 58.5C570.842 61.9848 573.766 66.697 574.887 72.6364Z" fill="white"/>
</svg>
